<svg width="364" height="465" viewBox="0 0 364 465" fill="none" xmlns="http://www.w3.org/2000/svg">
<g filter="url(#filter0_dddd_102_32)">
<rect x="32" y="8.15625" width="300" height="400" rx="80" fill="white"/>
</g>
<rect opacity="0.3" x="32" y="8.15625" width="300" height="400" rx="80" fill="#3BCD92"/>
<g style="mix-blend-mode:color-burn" opacity="0.6">
<rect x="35" y="11.1562" width="294" height="394" rx="77" stroke="#353F4A" stroke-width="6"/>
</g>
<g clip-path="url(#clip0_102_32)">
<g clip-path="url(#clip1_102_32)">
<path d="M206.785 235.586H157.197C154.744 235.586 152.756 237.575 152.756 240.027C152.756 242.481 154.744 244.469 157.197 244.469H206.785C209.238 244.469 211.227 242.481 211.227 240.027C211.227 237.575 209.238 235.586 206.785 235.586Z" fill="#1C9262"/>
<path d="M206.784 235.586H200.273C200.28 235.699 200.29 235.811 200.29 235.927C200.29 238.38 198.301 240.368 195.848 240.368H152.771C152.946 242.661 154.858 244.469 157.196 244.469H206.784C209.236 244.469 211.225 242.481 211.225 240.027C211.225 237.575 209.236 235.586 206.784 235.586Z" fill="#12553A"/>
<path d="M247.451 153.851C246.743 151.306 243.447 150.661 241.842 152.759C225.807 173.735 200.531 187.268 172.089 187.268C152.214 187.268 133.884 180.658 119.171 169.519C117.077 167.933 114.053 169.395 114.051 172.023V172.088C114.051 201.085 132.219 225.834 157.791 235.586H206.285C231.726 225.906 249.753 201.428 249.929 172.509C249.969 166.041 249.101 159.783 247.451 153.851Z" fill="#3BCD92"/>
<path d="M247.451 153.85C246.742 151.304 243.442 150.668 241.835 152.768C240.71 154.239 239.539 155.672 238.324 157.068C238.783 160.324 239.013 163.652 238.993 167.039C238.991 167.441 238.985 167.842 238.976 168.242C238.174 202.737 209.604 230.118 175.099 230.118H146.856C146.667 230.045 146.479 229.969 146.291 229.896C149.913 232.137 153.76 234.049 157.791 235.586H206.285C231.726 225.905 249.753 201.427 249.929 172.508C249.969 166.04 249.101 159.782 247.451 153.85Z" fill="#1D6649"/>
<path d="M235.299 134.452L221.872 126.699C218.945 125.009 217.942 121.266 219.631 118.339C221.322 115.411 225.065 114.408 227.993 116.098L241.42 123.85C244.348 125.541 245.35 129.284 243.661 132.212C241.97 135.139 238.227 136.142 235.299 134.452Z" fill="#3BCD92"/>
<path d="M241.42 123.85L227.992 116.098C225.678 114.762 222.854 115.11 220.938 116.76L233.218 123.85C236.144 125.54 237.147 129.284 235.457 132.211C235.104 132.824 234.659 133.351 234.151 133.788L235.299 134.45C238.226 136.141 241.97 135.138 243.66 132.211C245.349 129.284 244.347 125.54 241.42 123.85Z" fill="#1D6649"/>
<path d="M172.241 120.776C177.922 115.096 187.034 115.001 192.594 120.563C198.156 126.123 198.06 135.237 192.381 140.915C186.702 146.595 168.547 153.011 164.346 148.81C160.146 144.61 166.563 126.456 172.241 120.776Z" fill="#76D084"/>
<path d="M211.774 177.797L234.864 134.2L222.307 126.949L185.08 186.31C194.557 184.903 203.54 181.981 211.774 177.797Z" fill="#3BCD92"/>
<path d="M226.365 129.293L208.893 162.284C205.027 169.582 198.488 175.133 190.621 177.648C190.576 177.662 190.531 177.677 190.486 177.69L185.08 186.31C194.557 184.903 203.54 181.981 211.774 177.796L234.864 134.2L226.365 129.293Z" fill="#1D6649"/>
<path d="M172.088 187.264C174.065 187.264 176.026 187.197 177.971 187.068C176.43 177.665 170.996 165.431 165.988 160.423C158.366 152.8 146.136 152.672 138.673 160.136C133.735 165.073 132.123 172.095 133.801 178.49C145.371 184.11 158.361 187.264 172.088 187.264Z" fill="#76D084"/>
<path d="M192.593 120.561C189.911 117.878 186.402 116.516 182.85 116.457C187.166 122.056 186.68 130.209 181.444 135.445C177.957 138.931 169.769 142.695 162.994 144.111C162.988 146.188 163.394 147.858 164.345 148.809C168.545 153.009 186.7 146.593 192.38 140.914C198.058 135.235 198.154 126.121 192.593 120.561Z" fill="#5BB268"/>
<path d="M165.989 160.424C162.862 157.297 158.958 155.433 154.927 154.836C154.968 154.878 155.012 154.915 155.053 154.957C159.078 158.981 163.379 167.676 165.711 175.815C166.568 178.801 164.32 181.796 161.213 181.798C161.193 181.798 161.173 181.798 161.154 181.798C151.507 181.798 142.225 180.238 133.543 177.361C133.619 177.74 133.704 178.117 133.803 178.491C145.372 184.112 158.362 187.266 172.09 187.266C174.067 187.266 176.028 187.198 177.972 187.07C176.431 177.667 170.996 165.432 165.989 160.424Z" fill="#5BB368"/>
<path d="M249.426 153.3C248.266 149.129 242.845 148.071 240.213 151.513C233.635 160.119 225.69 167.249 216.795 172.7L222.894 161.186C223.424 160.185 223.041 158.944 222.042 158.414C221.041 157.885 219.8 158.266 219.269 159.267L210.228 176.335C203.617 179.621 196.577 182.037 189.256 183.513L222.994 129.716L232.129 134.989L223.747 150.813C223.218 151.813 223.599 153.055 224.6 153.584C225.602 154.115 226.842 153.733 227.372 152.732L235.758 136.898C239.363 138.11 243.458 136.663 245.437 133.238C247.689 129.336 246.348 124.329 242.446 122.076L229.017 114.324C225.116 112.071 220.109 113.412 217.857 117.314C215.881 120.737 216.67 125.009 219.527 127.528L183.844 184.423C182.455 184.612 181.058 184.769 179.652 184.891C177.671 175.229 172.4 163.939 167.438 158.976C165.508 157.046 163.279 155.515 160.815 154.427C159.779 153.97 158.569 154.439 158.112 155.475C157.653 156.511 158.123 157.722 159.159 158.179C161.158 159.062 162.968 160.306 164.539 161.876C168.769 166.107 173.609 176.512 175.511 185.149C172.595 185.262 169.672 185.24 166.47 185.035L164.471 183.038H167.23C168.362 183.038 169.281 182.119 169.281 180.987C169.281 179.855 168.362 178.936 167.23 178.936H160.371L153.429 171.994H160.901C162.034 171.994 162.951 171.077 162.951 169.945C162.951 168.811 162.034 167.894 160.901 167.894H149.327L141.662 160.228C144.171 158.259 147.157 157.066 150.409 156.753C151.537 156.646 152.363 155.644 152.254 154.516C152.146 153.389 151.146 152.563 150.017 152.671C145.87 153.071 141.939 154.703 138.749 157.314L128.429 146.995C127.628 146.194 126.33 146.194 125.529 146.995C124.729 147.796 124.729 149.094 125.529 149.895L135.847 160.212C132.509 164.297 130.847 169.546 131.157 174.836C127.439 172.804 123.846 170.487 120.409 167.884C117.004 165.306 112 167.63 112 172.087C112 200.019 128.412 224.387 152.485 235.568C151.383 236.732 150.704 238.301 150.704 240.027C150.704 243.607 153.616 246.519 157.196 246.519H206.785C210.364 246.519 213.277 243.607 213.277 240.027C213.277 238.318 212.611 236.761 211.527 235.601C242.751 221.158 258.569 186.155 249.426 153.3ZM221.408 119.365C222.53 117.421 225.024 116.754 226.968 117.875L240.395 125.627C242.343 126.752 243.01 129.239 241.885 131.187C240.76 133.134 238.274 133.802 236.326 132.677C234.47 131.606 239.637 134.588 222.897 124.925C220.954 123.802 220.286 121.308 221.408 119.365ZM146.126 181.231V170.492L152.118 176.484V182.89C150.099 182.41 148.1 181.857 146.126 181.231ZM156.22 180.585L160.014 184.38C158.743 184.202 157.477 183.995 156.22 183.761V180.585ZM138.762 163.127L142.026 166.391V179.813C139.843 178.995 137.694 178.087 135.581 177.088C134.531 172.081 135.693 167.04 138.762 163.127ZM205.898 233.535H171.331C170.198 233.535 169.28 234.454 169.28 235.586C169.28 236.718 170.198 237.636 171.331 237.636H206.785C208.103 237.636 209.175 238.709 209.175 240.027C209.175 241.346 208.103 242.418 206.785 242.418H157.196C155.878 242.418 154.805 241.346 154.805 240.027C154.805 238.709 155.877 237.636 157.196 237.636H161.761C162.895 237.636 163.812 236.718 163.812 235.586C163.812 234.454 162.895 233.535 161.761 233.535H158.179C133.454 223.945 116.1 199.63 116.1 172.024C116.102 171.085 117.187 170.589 117.933 171.154C157.075 200.789 213.25 193.538 243.471 154.004C244.049 153.249 245.221 153.485 245.475 154.4C254.37 186.365 238.329 220.992 205.898 233.535Z" fill="black"/>
<path d="M169.026 152.203C176.639 152.203 189.023 147.17 193.83 142.363C199.8 136.395 200.338 127.055 195.397 120.657L202.757 113.297C203.558 112.496 203.558 111.198 202.757 110.397C201.957 109.597 200.658 109.597 199.857 110.397L192.497 117.757C186.098 112.817 176.759 113.356 170.791 119.324C167.812 122.304 164.607 128.355 162.629 134.739C161.282 139.089 159.524 146.888 162.895 150.259C164.336 151.699 166.583 152.203 169.026 152.203ZM166.547 135.954C168.316 130.246 171.186 124.729 173.691 122.224C178.062 117.852 184.795 117.334 189.566 120.688L187.744 122.51H176.211C175.079 122.51 174.162 123.429 174.162 124.561C174.162 125.693 175.079 126.611 176.211 126.611H183.643L180.199 130.056H173.906C172.773 130.056 171.856 130.974 171.856 132.106C171.856 133.239 172.773 134.157 173.906 134.157H176.098L169.085 141.169C167.789 142.465 168.725 144.67 170.535 144.67C171.06 144.67 171.584 144.47 171.985 144.069L176.201 139.853V140.647C176.201 141.779 177.119 142.697 178.251 142.697C179.384 142.697 180.302 141.779 180.302 140.647V135.752L183.237 132.817V137.122C183.237 138.254 184.156 139.172 185.288 139.172C186.422 139.172 187.339 138.254 187.339 137.122V128.715C190.742 125.312 189.089 126.966 192.466 123.588C195.822 128.362 195.294 135.099 190.93 139.464C188.425 141.968 182.908 144.839 177.202 146.607C170.824 148.583 166.818 148.382 165.795 147.359C164.772 146.336 164.571 142.33 166.547 135.954Z" fill="black"/>
</g>
</g>
<path d="M147.488 333.352H152.164V350.156H147.488V343.711H142.449V350.156H137.785V333.352H142.449V339.422H147.488V333.352ZM160.016 346.137H166.355V350.156H155.41V333.352H166.156V337.359H160.016V339.832H165.535V343.629H160.016V346.137ZM180.16 350.156L179.234 347.426H173.281L172.355 350.156H167.398L173.996 333.352H178.52L185.258 350.156H180.16ZM178.109 343.805L176.246 338.602L174.406 343.805H178.109ZM191.574 345.914H197.551V350.156H186.887V333.352H191.574V345.914ZM204.242 346.137H210.582V350.156H199.637V333.352H210.383V337.359H204.242V339.832H209.762V343.629H204.242V346.137ZM222.277 350.156L219.559 345.012H217.883V350.156H213.254V333.352H220.531C222.352 333.352 223.848 333.906 225.02 335.016C226.191 336.125 226.777 337.555 226.777 339.305C226.777 340.32 226.543 341.238 226.074 342.059C225.605 342.879 224.949 343.543 224.105 344.051L227.445 350.156H222.277ZM217.883 337.465V341.121H219.992C220.625 341.121 221.121 340.953 221.48 340.617C221.848 340.273 222.031 339.832 222.031 339.293C222.031 338.754 221.848 338.316 221.48 337.98C221.121 337.637 220.625 337.465 219.992 337.465H217.883Z" fill="#1D6649"/>
<defs>
<filter id="filter0_dddd_102_32" x="0" y="0.15625" width="364" height="464" filterUnits="userSpaceOnUse" color-interpolation-filters="sRGB">
<feFlood flood-opacity="0" result="BackgroundImageFix"/>
<feColorMatrix in="SourceAlpha" type="matrix" values="0 0 0 0 0 0 0 0 0 0 0 0 0 0 0 0 0 0 127 0" result="hardAlpha"/>
<feOffset/>
<feGaussianBlur stdDeviation="0.5"/>
<feColorMatrix type="matrix" values="0 0 0 0 0 0 0 0 0 0 0 0 0 0 0 0 0 0 0.04 0"/>
<feBlend mode="normal" in2="BackgroundImageFix" result="effect1_dropShadow_102_32"/>
<feColorMatrix in="SourceAlpha" type="matrix" values="0 0 0 0 0 0 0 0 0 0 0 0 0 0 0 0 0 0 127 0" result="hardAlpha"/>
<feOffset dy="2"/>
<feGaussianBlur stdDeviation="3"/>
<feColorMatrix type="matrix" values="0 0 0 0 0.231373 0 0 0 0 0.803922 0 0 0 0 0.572549 0 0 0 0.08 0"/>
<feBlend mode="normal" in2="effect1_dropShadow_102_32" result="effect2_dropShadow_102_32"/>
<feColorMatrix in="SourceAlpha" type="matrix" values="0 0 0 0 0 0 0 0 0 0 0 0 0 0 0 0 0 0 127 0" result="hardAlpha"/>
<feOffset dy="16"/>
<feGaussianBlur stdDeviation="12"/>
<feColorMatrix type="matrix" values="0 0 0 0 0.231373 0 0 0 0 0.803922 0 0 0 0 0.572549 0 0 0 0.1 0"/>
<feBlend mode="normal" in2="effect2_dropShadow_102_32" result="effect3_dropShadow_102_32"/>
<feColorMatrix in="SourceAlpha" type="matrix" values="0 0 0 0 0 0 0 0 0 0 0 0 0 0 0 0 0 0 127 0" result="hardAlpha"/>
<feOffset dy="24"/>
<feGaussianBlur stdDeviation="16"/>
<feColorMatrix type="matrix" values="0 0 0 0 0.231373 0 0 0 0 0.803922 0 0 0 0 0.572549 0 0 0 0.14 0"/>
<feBlend mode="normal" in2="effect3_dropShadow_102_32" result="effect4_dropShadow_102_32"/>
<feBlend mode="normal" in="SourceGraphic" in2="effect4_dropShadow_102_32" result="shape"/>
</filter>
<clipPath id="clip0_102_32">
<rect width="140" height="140" fill="white" transform="translate(112 108.156)"/>
</clipPath>
<clipPath id="clip1_102_32">
<rect width="140" height="140" fill="white" transform="translate(112 108.156)"/>
</clipPath>
</defs>
</svg>
