<svg width="364" height="465" viewBox="0 0 364 465" fill="none" xmlns="http://www.w3.org/2000/svg">
<g filter="url(#filter0_dddd_102_31)">
<rect x="32" y="8.15625" width="300" height="400" rx="80" fill="white"/>
</g>
<g opacity="0.3" filter="url(#filter1_dddd_102_31)">
<rect x="32" y="8.15625" width="300" height="400" rx="80" fill="#5391EF"/>
</g>
<g style="mix-blend-mode:color-burn" opacity="0.6">
<rect x="35" y="11.1562" width="294" height="394" rx="77" stroke="#353F4A" stroke-width="6"/>
</g>
<g clip-path="url(#clip0_102_31)">
<path d="M192.536 255.808H171.464C170.599 255.808 169.898 255.107 169.898 254.242V245.683C169.898 244.818 170.599 244.117 171.464 244.117H192.536C193.4 244.117 194.101 244.818 194.101 245.683V254.242C194.102 255.107 193.401 255.808 192.536 255.808Z" fill="#FFDBA9"/>
<path d="M197.004 221.348H166.997C166.177 221.348 165.512 220.683 165.512 219.863V210.626C165.512 209.806 166.176 209.141 166.997 209.141H197.004C197.824 209.141 198.489 209.805 198.489 210.626V219.863C198.489 220.683 197.824 221.348 197.004 221.348Z" fill="#FFDBA9"/>
<path d="M197.004 221.348H190.266V209.141H197.004C197.824 209.141 198.489 209.805 198.489 210.626V219.863C198.489 220.683 197.824 221.348 197.004 221.348Z" fill="#FFC473"/>
<path d="M192.536 255.808H186.697V244.117H192.536C193.401 244.117 194.102 244.818 194.102 245.683V254.242C194.102 255.107 193.401 255.808 192.536 255.808Z" fill="#FFC473"/>
<path d="M193.263 209.139L200.331 136.63C200.36 136.33 200.302 136.028 200.164 135.761L182 100.496V209.139H193.263V209.139Z" fill="#5391EF"/>
<path d="M200.33 136.632L193.263 209.142H186.086L193.153 136.632C193.185 136.334 193.125 136.03 192.988 135.764L182 114.434V100.5L200.164 135.764C200.302 136.03 200.358 136.334 200.33 136.632Z" fill="#2D5288"/>
<path d="M170.738 209.139L163.669 136.63C163.64 136.33 163.698 136.028 163.836 135.761L182 100.496V209.139H170.738V209.139Z" fill="#5391EF"/>
<path d="M190.447 221.348H173.553V244.118H190.447V221.348Z" fill="#B76035"/>
<path d="M190.447 221.348H182V244.118H190.447V221.348Z" fill="#A04C27"/>
<path d="M202.253 134.687L184.089 99.4219C184.084 99.4125 184.077 99.4047 184.072 99.3957C184.038 99.3307 183.996 99.2707 183.955 99.2091C183.923 99.1607 183.894 99.11 183.859 99.0644C183.818 99.0103 183.769 98.9622 183.723 98.9116C183.682 98.8669 183.643 98.8191 183.599 98.7782C183.549 98.7313 183.492 98.6916 183.438 98.6494C183.391 98.6128 183.347 98.5732 183.297 98.5407C183.24 98.5028 183.178 98.4728 183.118 98.44C183.064 98.411 183.013 98.3791 182.958 98.3544C182.901 98.3291 182.84 98.3113 182.78 98.2903C182.715 98.2675 182.652 98.2422 182.585 98.225C182.574 98.2222 182.565 98.2172 182.554 98.2147C182.504 98.2028 182.454 98.2003 182.405 98.1919C182.335 98.1797 182.267 98.166 182.196 98.16C182.133 98.1547 182.069 98.1569 182.006 98.1569C181.939 98.1566 181.872 98.1544 181.804 98.1603C181.738 98.166 181.673 98.1794 181.608 98.1903C181.555 98.1994 181.501 98.2022 181.448 98.215C181.436 98.2178 181.426 98.2231 181.415 98.2263C181.354 98.2419 181.296 98.2653 181.237 98.2857C181.172 98.3082 181.105 98.3278 181.043 98.356C180.994 98.3775 180.95 98.406 180.903 98.4307C180.836 98.4666 180.767 98.5003 180.703 98.5422C180.659 98.5713 180.62 98.6069 180.578 98.6391C180.518 98.6847 180.457 98.7285 180.402 98.7794C180.36 98.8185 180.323 98.8641 180.284 98.9066C180.236 98.9588 180.186 99.0088 180.143 99.0647C180.108 99.1097 180.079 99.16 180.048 99.2082C180.007 99.2697 179.965 99.33 179.93 99.3957C179.925 99.405 179.918 99.4125 179.913 99.4219L161.749 134.686C161.404 135.357 161.26 136.108 161.333 136.858L168.15 206.791H166.997C164.883 206.791 163.163 208.511 163.163 210.625V219.862C163.163 221.976 164.883 223.696 166.997 223.696H171.206V225.226C171.206 226.522 172.257 227.574 173.554 227.574C174.851 227.574 175.903 226.523 175.903 225.226V223.696H188.1V241.769H175.903V239.838C175.903 238.541 174.851 237.49 173.554 237.49C172.257 237.49 171.206 238.541 171.206 239.838V241.782C169.169 241.917 167.551 243.612 167.551 245.683V254.242C167.551 256.4 169.307 258.156 171.465 258.156H192.537C194.695 258.156 196.451 256.401 196.451 254.242V245.683C196.451 243.612 194.834 241.917 192.796 241.782V223.696H197.005C199.118 223.696 200.838 221.976 200.838 219.862V210.625C200.838 208.511 199.119 206.791 197.005 206.791H195.852L199.668 167.649C199.793 166.358 198.849 165.21 197.558 165.084C196.264 164.955 195.119 165.903 194.993 167.194L191.132 206.792H184.349V110.185L197.972 136.632L196.397 152.785C196.272 154.075 197.216 155.224 198.507 155.35C199.795 155.474 200.946 154.531 201.072 153.24L202.668 136.86C202.742 136.109 202.598 135.357 202.253 134.687ZM191.754 253.46H172.248V246.466H173.554H190.448H191.754V253.46H191.754ZM193.263 211.489H196.141V218.999H190.448H173.554H167.861V211.489H170.739H182.001H193.263ZM172.869 206.792L166.03 136.632L179.653 110.185V206.792H172.869V206.792Z" fill="black"/>
</g>
<path d="M151.566 350.156H146.082L141.266 342.738V350.156H136.637V333.352H141.266V340.441L145.695 333.352H151.062L145.684 341.496L151.566 350.156ZM163.379 333.352H167.855V350.156H164.035L157.355 341.039V350.156H152.879V333.352H156.922L163.379 342.176V333.352ZM171.113 350.156V333.352H175.801V350.156H171.113ZM186.781 341.18H195.992C195.992 342.539 195.773 343.801 195.336 344.965C194.906 346.129 194.305 347.125 193.531 347.953C192.766 348.773 191.832 349.418 190.73 349.887C189.629 350.348 188.43 350.578 187.133 350.578C185.867 350.578 184.68 350.359 183.57 349.922C182.461 349.477 181.512 348.867 180.723 348.094C179.941 347.32 179.324 346.387 178.871 345.293C178.418 344.199 178.191 343.023 178.191 341.766C178.191 340.508 178.414 339.332 178.859 338.238C179.305 337.145 179.918 336.211 180.699 335.438C181.48 334.656 182.422 334.043 183.523 333.598C184.633 333.152 185.824 332.93 187.098 332.93C189.301 332.93 191.215 333.551 192.84 334.793C194.465 336.035 195.457 337.633 195.816 339.586H190.965C190.66 338.875 190.16 338.312 189.465 337.898C188.777 337.477 188.004 337.266 187.145 337.266C185.887 337.266 184.867 337.68 184.086 338.508C183.312 339.336 182.926 340.422 182.926 341.766C182.926 343.102 183.312 344.184 184.086 345.012C184.859 345.832 185.879 346.242 187.145 346.242C188.027 346.242 188.816 346.047 189.512 345.656C190.207 345.266 190.688 344.746 190.953 344.098H186.781V341.18ZM208.027 333.352H212.703V350.156H208.027V343.711H202.988V350.156H198.324V333.352H202.988V339.422H208.027V333.352ZM228.547 333.352V337.523H223.977V350.156H219.336V337.523H214.766V333.352H228.547Z" fill="#233E66"/>
<defs>
<filter id="filter0_dddd_102_31" x="0" y="0.15625" width="364" height="464" filterUnits="userSpaceOnUse" color-interpolation-filters="sRGB">
<feFlood flood-opacity="0" result="BackgroundImageFix"/>
<feColorMatrix in="SourceAlpha" type="matrix" values="0 0 0 0 0 0 0 0 0 0 0 0 0 0 0 0 0 0 127 0" result="hardAlpha"/>
<feOffset/>
<feGaussianBlur stdDeviation="0.5"/>
<feColorMatrix type="matrix" values="0 0 0 0 0 0 0 0 0 0 0 0 0 0 0 0 0 0 0.04 0"/>
<feBlend mode="normal" in2="BackgroundImageFix" result="effect1_dropShadow_102_31"/>
<feColorMatrix in="SourceAlpha" type="matrix" values="0 0 0 0 0 0 0 0 0 0 0 0 0 0 0 0 0 0 127 0" result="hardAlpha"/>
<feOffset dy="2"/>
<feGaussianBlur stdDeviation="3"/>
<feColorMatrix type="matrix" values="0 0 0 0 0.324219 0 0 0 0 0.569531 0 0 0 0 0.9375 0 0 0 0.08 0"/>
<feBlend mode="normal" in2="effect1_dropShadow_102_31" result="effect2_dropShadow_102_31"/>
<feColorMatrix in="SourceAlpha" type="matrix" values="0 0 0 0 0 0 0 0 0 0 0 0 0 0 0 0 0 0 127 0" result="hardAlpha"/>
<feOffset dy="16"/>
<feGaussianBlur stdDeviation="12"/>
<feColorMatrix type="matrix" values="0 0 0 0 0.324219 0 0 0 0 0.569531 0 0 0 0 0.9375 0 0 0 0.1 0"/>
<feBlend mode="normal" in2="effect2_dropShadow_102_31" result="effect3_dropShadow_102_31"/>
<feColorMatrix in="SourceAlpha" type="matrix" values="0 0 0 0 0 0 0 0 0 0 0 0 0 0 0 0 0 0 127 0" result="hardAlpha"/>
<feOffset dy="24"/>
<feGaussianBlur stdDeviation="16"/>
<feColorMatrix type="matrix" values="0 0 0 0 0.324219 0 0 0 0 0.569531 0 0 0 0 0.9375 0 0 0 0.14 0"/>
<feBlend mode="normal" in2="effect3_dropShadow_102_31" result="effect4_dropShadow_102_31"/>
<feBlend mode="normal" in="SourceGraphic" in2="effect4_dropShadow_102_31" result="shape"/>
</filter>
<filter id="filter1_dddd_102_31" x="0" y="0.15625" width="364" height="464" filterUnits="userSpaceOnUse" color-interpolation-filters="sRGB">
<feFlood flood-opacity="0" result="BackgroundImageFix"/>
<feColorMatrix in="SourceAlpha" type="matrix" values="0 0 0 0 0 0 0 0 0 0 0 0 0 0 0 0 0 0 127 0" result="hardAlpha"/>
<feOffset/>
<feGaussianBlur stdDeviation="0.5"/>
<feColorMatrix type="matrix" values="0 0 0 0 0 0 0 0 0 0 0 0 0 0 0 0 0 0 0.04 0"/>
<feBlend mode="normal" in2="BackgroundImageFix" result="effect1_dropShadow_102_31"/>
<feColorMatrix in="SourceAlpha" type="matrix" values="0 0 0 0 0 0 0 0 0 0 0 0 0 0 0 0 0 0 127 0" result="hardAlpha"/>
<feOffset dy="2"/>
<feGaussianBlur stdDeviation="3"/>
<feColorMatrix type="matrix" values="0 0 0 0 0.324219 0 0 0 0 0.569531 0 0 0 0 0.9375 0 0 0 0.08 0"/>
<feBlend mode="normal" in2="effect1_dropShadow_102_31" result="effect2_dropShadow_102_31"/>
<feColorMatrix in="SourceAlpha" type="matrix" values="0 0 0 0 0 0 0 0 0 0 0 0 0 0 0 0 0 0 127 0" result="hardAlpha"/>
<feOffset dy="16"/>
<feGaussianBlur stdDeviation="12"/>
<feColorMatrix type="matrix" values="0 0 0 0 0.324219 0 0 0 0 0.569531 0 0 0 0 0.9375 0 0 0 0.1 0"/>
<feBlend mode="normal" in2="effect2_dropShadow_102_31" result="effect3_dropShadow_102_31"/>
<feColorMatrix in="SourceAlpha" type="matrix" values="0 0 0 0 0 0 0 0 0 0 0 0 0 0 0 0 0 0 127 0" result="hardAlpha"/>
<feOffset dy="24"/>
<feGaussianBlur stdDeviation="16"/>
<feColorMatrix type="matrix" values="0 0 0 0 0.324219 0 0 0 0 0.569531 0 0 0 0 0.9375 0 0 0 0.14 0"/>
<feBlend mode="normal" in2="effect3_dropShadow_102_31" result="effect4_dropShadow_102_31"/>
<feBlend mode="normal" in="SourceGraphic" in2="effect4_dropShadow_102_31" result="shape"/>
</filter>
<clipPath id="clip0_102_31">
<rect width="160" height="160" fill="white" transform="translate(102 98.1562)"/>
</clipPath>
</defs>
</svg>
