<svg width="364" height="465" viewBox="0 0 364 465" fill="none" xmlns="http://www.w3.org/2000/svg">
<g filter="url(#filter0_dddd_102_30)">
<rect x="32" y="8.15625" width="300" height="400" rx="80" fill="white"/>
</g>
<rect opacity="0.3" x="32" y="8.15625" width="300" height="400" rx="80" fill="#B66140"/>
<g style="mix-blend-mode:color-burn" opacity="0.6">
<rect x="35" y="11.1562" width="294" height="394" rx="77" stroke="#353F4A" stroke-width="6"/>
</g>
<g clip-path="url(#clip0_102_30)">
<path d="M227.034 140.472L219.621 133.059C218.678 132.116 217.149 132.116 216.207 133.059L211.197 138.068L222.025 148.896L227.034 143.886C227.977 142.943 227.977 141.415 227.034 140.472Z" fill="#EFEACE"/>
<path d="M123.192 244.847L115.246 236.9C113.671 235.325 113.671 232.772 115.246 231.197L175.985 170.457L189.635 184.107L128.896 244.847C127.321 246.422 124.767 246.422 123.192 244.847Z" fill="#EFEACE"/>
<path d="M175.985 170.461L170.343 176.103C175.318 181.077 175.318 189.142 170.343 194.116L121.4 243.059L123.192 244.851C124.767 246.426 127.321 246.426 128.896 244.851L189.635 184.112L175.985 170.461Z" fill="#D8D3B6"/>
<path d="M227.034 140.474L225.16 138.6C223.2 140.56 220.023 140.56 218.064 138.6L214.366 134.902L211.197 138.071L222.025 148.898L227.034 143.889C227.977 142.946 227.977 141.417 227.034 140.474Z" fill="#D8D3B6"/>
<path d="M153.55 148.677L211.416 206.543L245.895 172.064L188.029 114.197L153.55 148.677Z" fill="#B66140"/>
<path d="M217.535 210.08L211.416 206.542L245.895 172.062L249.519 178.006C250.194 179.113 250.023 180.538 249.106 181.455L220.927 209.634C220.028 210.534 218.636 210.716 217.535 210.08Z" fill="#7C381D"/>
<path d="M181.91 110.659L188.029 114.197L153.55 148.676L149.926 142.732C149.251 141.625 149.422 140.2 150.339 139.283L178.518 111.104C179.417 110.205 180.809 110.022 181.91 110.659Z" fill="#CE886B"/>
<path d="M146.963 226.783L133.313 213.133L115.246 231.2C113.671 232.775 113.671 235.328 115.246 236.903L123.192 244.85C124.767 246.425 127.321 246.425 128.896 244.85L146.963 226.783Z" fill="#F5D4A6"/>
<path d="M126.044 246.028C127.076 246.028 128.108 245.635 128.896 244.847L137.468 236.275L146.963 226.78L142.319 222.137L121.4 243.056L122.461 244.116L123.192 244.847C123.98 245.635 125.012 246.028 126.044 246.028Z" fill="#D1AE7E"/>
<path d="M251.284 176.931L247.66 170.987C247.576 170.848 247.471 170.717 247.357 170.601L225.298 148.543L228.494 145.347C229.34 144.501 229.806 143.376 229.806 142.179C229.806 140.982 229.34 139.857 228.494 139.011L221.081 131.598C219.334 129.85 216.491 129.85 214.744 131.598L211.549 134.793L189.49 112.734C189.365 112.609 189.217 112.496 189.063 112.407L182.945 108.868C181.037 107.765 178.616 108.083 177.057 109.641L148.877 137.821C147.281 139.417 146.987 141.878 148.162 143.806L151.786 149.749C151.87 149.888 151.975 150.019 152.089 150.135L172.736 170.782L171.47 172.048C170.663 172.855 170.663 174.164 171.47 174.97C172.277 175.777 173.585 175.777 174.392 174.97L175.658 173.704L186.386 184.432L146.962 223.857L136.234 213.129L167.713 181.682C168.52 180.875 168.52 179.567 167.713 178.76C166.906 177.953 165.598 177.953 164.791 178.76L113.784 229.735C111.405 232.113 111.405 235.983 113.784 238.361L121.73 246.307C122.882 247.459 124.414 248.094 126.043 248.094C127.672 248.094 129.204 247.459 130.356 246.307L189.308 187.355L209.956 208.002C210.081 208.128 210.229 208.241 210.382 208.33L216.501 211.868C217.261 212.307 218.102 212.521 218.938 212.521C220.2 212.521 221.451 212.033 222.389 211.095L250.568 182.915C252.165 181.319 252.459 178.858 251.284 176.931ZM127.434 243.385C127.063 243.757 126.569 243.962 126.043 243.962C125.518 243.962 125.024 243.757 124.652 243.385L116.706 235.439C116.334 235.067 116.129 234.573 116.129 234.048C116.129 233.523 116.334 233.029 116.706 232.657L133.311 216.052L144.04 226.78L127.434 243.385ZM173.383 165.585L197.361 162.73L194.506 186.709L173.383 165.585ZM169.664 161.866L156.472 148.674L188.029 117.117L201.221 130.309L197.863 158.509L169.664 161.866ZM204.94 134.028L210.087 139.176V139.176L211.792 140.881L226.063 155.152L202.085 158.006L204.94 134.028ZM217.667 134.519C217.751 134.435 217.847 134.417 217.913 134.417C217.979 134.417 218.075 134.435 218.159 134.519L225.572 141.932C225.656 142.016 225.674 142.113 225.674 142.179C225.674 142.244 225.656 142.34 225.572 142.425L222.377 145.62L218.424 141.667L214.471 137.714L217.667 134.519ZM151.8 140.743L179.979 112.564C180.122 112.421 180.312 112.346 180.505 112.346C180.632 112.346 180.76 112.379 180.876 112.446L184.665 114.636L153.946 145.355L151.691 141.655C151.512 141.361 151.556 140.986 151.8 140.743ZM247.646 179.993L219.467 208.172C219.23 208.41 218.861 208.459 218.57 208.29L214.781 206.099L235.807 185.073C236.614 184.266 236.614 182.958 235.807 182.151C235 181.344 233.692 181.344 232.885 182.151L211.417 203.619L198.226 190.427L201.583 162.227L229.783 158.87L242.974 172.062L239.83 175.207C239.023 176.014 239.023 177.322 239.83 178.129C240.636 178.936 241.945 178.936 242.752 178.129L245.5 175.381L247.755 179.081C247.934 179.375 247.89 179.75 247.646 179.993Z" fill="black"/>
</g>
<path d="M137.594 333.352H142.27V350.156H137.594V343.711H132.555V350.156H127.891V333.352H132.555V339.422H137.594V333.352ZM156.648 350.156L155.723 347.426H149.77L148.844 350.156H143.887L150.484 333.352H155.008L161.746 350.156H156.648ZM154.598 343.805L152.734 338.602L150.895 343.805H154.598ZM184.656 350.156H179.98L178.668 340.477L174.215 350.18H172.844L168.391 340.488L167.102 350.156H162.414L164.957 333.352H169.574L173.535 342.492L177.52 333.352H182.137L184.656 350.156ZM208.234 350.156H203.559L202.246 340.477L197.793 350.18H196.422L191.969 340.488L190.68 350.156H185.992L188.535 333.352H193.152L197.113 342.492L201.098 333.352H205.715L208.234 350.156ZM215.137 346.137H221.477V350.156H210.531V333.352H221.277V337.359H215.137V339.832H220.656V343.629H215.137V346.137ZM233.172 350.156L230.453 345.012H228.777V350.156H224.148V333.352H231.426C233.246 333.352 234.742 333.906 235.914 335.016C237.086 336.125 237.672 337.555 237.672 339.305C237.672 340.32 237.438 341.238 236.969 342.059C236.5 342.879 235.844 343.543 235 344.051L238.34 350.156H233.172ZM228.777 337.465V341.121H230.887C231.52 341.121 232.016 340.953 232.375 340.617C232.742 340.273 232.926 339.832 232.926 339.293C232.926 338.754 232.742 338.316 232.375 337.98C232.016 337.637 231.52 337.465 230.887 337.465H228.777Z" fill="#662F19"/>
<defs>
<filter id="filter0_dddd_102_30" x="0" y="0.15625" width="364" height="464" filterUnits="userSpaceOnUse" color-interpolation-filters="sRGB">
<feFlood flood-opacity="0" result="BackgroundImageFix"/>
<feColorMatrix in="SourceAlpha" type="matrix" values="0 0 0 0 0 0 0 0 0 0 0 0 0 0 0 0 0 0 127 0" result="hardAlpha"/>
<feOffset/>
<feGaussianBlur stdDeviation="0.5"/>
<feColorMatrix type="matrix" values="0 0 0 0 0 0 0 0 0 0 0 0 0 0 0 0 0 0 0.04 0"/>
<feBlend mode="normal" in2="BackgroundImageFix" result="effect1_dropShadow_102_30"/>
<feColorMatrix in="SourceAlpha" type="matrix" values="0 0 0 0 0 0 0 0 0 0 0 0 0 0 0 0 0 0 127 0" result="hardAlpha"/>
<feOffset dy="2"/>
<feGaussianBlur stdDeviation="3"/>
<feColorMatrix type="matrix" values="0 0 0 0 0.7125 0 0 0 0 0.381696 0 0 0 0 0.249375 0 0 0 0.08 0"/>
<feBlend mode="normal" in2="effect1_dropShadow_102_30" result="effect2_dropShadow_102_30"/>
<feColorMatrix in="SourceAlpha" type="matrix" values="0 0 0 0 0 0 0 0 0 0 0 0 0 0 0 0 0 0 127 0" result="hardAlpha"/>
<feOffset dy="16"/>
<feGaussianBlur stdDeviation="12"/>
<feColorMatrix type="matrix" values="0 0 0 0 0.7125 0 0 0 0 0.381696 0 0 0 0 0.249375 0 0 0 0.1 0"/>
<feBlend mode="normal" in2="effect2_dropShadow_102_30" result="effect3_dropShadow_102_30"/>
<feColorMatrix in="SourceAlpha" type="matrix" values="0 0 0 0 0 0 0 0 0 0 0 0 0 0 0 0 0 0 127 0" result="hardAlpha"/>
<feOffset dy="24"/>
<feGaussianBlur stdDeviation="16"/>
<feColorMatrix type="matrix" values="0 0 0 0 0.7125 0 0 0 0 0.381696 0 0 0 0 0.249375 0 0 0 0.14 0"/>
<feBlend mode="normal" in2="effect3_dropShadow_102_30" result="effect4_dropShadow_102_30"/>
<feBlend mode="normal" in="SourceGraphic" in2="effect4_dropShadow_102_30" result="shape"/>
</filter>
<clipPath id="clip0_102_30">
<rect width="140" height="140" fill="white" transform="translate(112 108.156)"/>
</clipPath>
</defs>
</svg>
