<svg width="364" height="465" viewBox="0 0 364 465" fill="none" xmlns="http://www.w3.org/2000/svg">
<g filter="url(#filter0_dddd_102_29)">
<rect x="32" y="8.15625" width="300" height="400" rx="80" fill="white"/>
</g>
<g opacity="0.3" filter="url(#filter1_dddd_102_29)">
<rect x="32" y="8.15625" width="300" height="400" rx="80" fill="#925CB4"/>
</g>
<g style="mix-blend-mode:color-burn" opacity="0.6">
<rect x="35" y="11.1562" width="294" height="394" rx="77" stroke="#353F4A" stroke-width="6"/>
</g>
<g clip-path="url(#clip0_102_29)">
<path d="M249.922 210.592C249.922 225.443 219.513 237.483 182.001 237.483C174.028 237.483 166.376 236.94 159.268 235.939C132.937 232.238 114.08 222.285 114.08 210.592C114.08 200.049 129.402 190.925 151.711 186.515L173.512 186.354L209.99 186.082C233.538 190.305 249.922 199.691 249.922 210.592Z" fill="#533466"/>
<path d="M159.268 235.94C132.937 232.239 114.08 222.287 114.08 210.594C114.08 200.051 129.402 190.927 151.711 186.516L173.512 186.355L155.969 210.397C155.969 210.397 141.675 218.345 159.268 235.94Z" fill="#925CB4"/>
<path d="M217.635 210.591C217.635 218.384 201.681 224.699 182 224.699C172.841 224.699 164.491 223.332 158.178 221.084C150.926 218.5 146.365 214.757 146.365 210.59L153.723 194.234L150.396 181.481L168.693 163.184V145.996L204.178 118.828L194.753 147.105L200.297 159.303L196.971 174.828L213.327 188.967L217.635 210.591Z" fill="#925CB4"/>
<path d="M204.178 118.828L180.916 149.268V160.493L165.114 185.027L169.689 196.255L158.178 221.083C150.926 218.5 146.365 214.757 146.365 210.59L153.723 194.234L150.396 181.481L168.693 163.184V145.996L204.178 118.828Z" fill="#B27DD2"/>
<path d="M225.76 228.966C213.643 233.118 198.102 235.406 182 235.406C164.114 235.406 147.329 232.66 134.738 227.675C122.931 223 116.158 216.774 116.158 210.594C116.158 202.838 126.889 195.105 144.163 190.41C145.271 190.109 145.926 188.967 145.625 187.859C145.324 186.751 144.182 186.096 143.073 186.397C133.909 188.888 126.251 192.273 120.928 196.186C115.087 200.48 112 205.462 112 210.594C112 218.688 119.532 226.127 133.207 231.541C146.274 236.715 163.602 239.564 182 239.564C198.549 239.564 214.569 237.197 227.108 232.899C228.194 232.527 228.773 231.344 228.401 230.258C228.029 229.172 226.846 228.593 225.76 228.966Z" fill="black"/>
<path d="M232.027 190.145C230.967 189.703 229.75 190.205 229.309 191.265C228.867 192.325 229.369 193.542 230.429 193.984C241.495 198.592 247.842 204.645 247.842 210.592C247.842 215.995 242.728 221.416 233.442 225.856C232.406 226.351 231.968 227.593 232.463 228.628C232.82 229.375 233.564 229.811 234.34 229.811C234.641 229.811 234.946 229.746 235.235 229.608C246.203 224.364 252.001 217.788 252.001 210.592C252.001 202.769 244.907 195.508 232.027 190.145Z" fill="black"/>
<path d="M148.385 182.008L151.527 194.051L149.14 199.358C148.669 200.405 149.136 201.636 150.183 202.107C151.23 202.578 152.461 202.111 152.932 201.064L155.62 195.088C155.815 194.655 155.855 194.169 155.736 193.71L152.71 182.111L164.521 170.299C164.522 170.298 164.522 170.298 164.523 170.297L175.958 158.862C176.77 158.05 176.77 156.734 175.958 155.922C175.146 155.11 173.83 155.11 173.018 155.922L170.773 158.166V147.024L200.065 124.598L192.782 146.449C192.616 146.947 192.644 147.489 192.861 147.967L198.122 159.54L196.782 165.791C196.782 165.793 196.781 165.794 196.781 165.795L193.684 180.25C193.444 181.373 194.159 182.478 195.282 182.718C195.428 182.75 195.575 182.765 195.719 182.765C196.679 182.765 197.541 182.097 197.75 181.121L198.269 178.699L211.429 190.075L215.551 210.774C215.263 216.416 201.566 222.621 182.001 222.621C162.685 222.621 149.088 216.572 148.468 210.989L149.937 207.721C150.409 206.674 149.942 205.443 148.894 204.972C147.847 204.501 146.616 204.968 146.145 206.015L144.47 209.739C144.349 210.007 144.287 210.298 144.287 210.592C144.287 215.272 148.46 219.501 156.038 222.501C163.006 225.26 172.227 226.779 182.001 226.779C191.775 226.779 200.995 225.26 207.963 222.501C215.541 219.501 219.715 215.272 219.715 210.592C219.715 210.456 219.701 210.32 219.674 210.186L215.368 188.563C215.277 188.109 215.039 187.698 214.688 187.396L199.263 174.062L199.94 170.906L202.332 159.741C202.426 159.305 202.376 158.851 202.192 158.445L196.986 146.99L206.153 119.487C206.442 118.621 206.131 117.667 205.388 117.137C204.644 116.606 203.642 116.623 202.916 117.178L167.431 144.347C166.917 144.74 166.616 145.35 166.616 145.998V162.325L148.928 180.013C148.405 180.535 148.199 181.294 148.385 182.008Z" fill="black"/>
</g>
<path d="M168.148 350.156H163.473L162.16 340.477L157.707 350.18H156.336L151.883 340.488L150.594 350.156H145.906L148.449 333.352H153.066L157.027 342.492L161.012 333.352H165.629L168.148 350.156ZM181.578 350.156L180.652 347.426H174.699L173.773 350.156H168.816L175.414 333.352H179.938L186.676 350.156H181.578ZM179.527 343.805L177.664 338.602L175.824 343.805H179.527ZM195.23 341.18H204.441C204.441 342.539 204.223 343.801 203.785 344.965C203.355 346.129 202.754 347.125 201.98 347.953C201.215 348.773 200.281 349.418 199.18 349.887C198.078 350.348 196.879 350.578 195.582 350.578C194.316 350.578 193.129 350.359 192.02 349.922C190.91 349.477 189.961 348.867 189.172 348.094C188.391 347.32 187.773 346.387 187.32 345.293C186.867 344.199 186.641 343.023 186.641 341.766C186.641 340.508 186.863 339.332 187.309 338.238C187.754 337.145 188.367 336.211 189.148 335.438C189.93 334.656 190.871 334.043 191.973 333.598C193.082 333.152 194.273 332.93 195.547 332.93C197.75 332.93 199.664 333.551 201.289 334.793C202.914 336.035 203.906 337.633 204.266 339.586H199.414C199.109 338.875 198.609 338.312 197.914 337.898C197.227 337.477 196.453 337.266 195.594 337.266C194.336 337.266 193.316 337.68 192.535 338.508C191.762 339.336 191.375 340.422 191.375 341.766C191.375 343.102 191.762 344.184 192.535 345.012C193.309 345.832 194.328 346.242 195.594 346.242C196.477 346.242 197.266 346.047 197.961 345.656C198.656 345.266 199.137 344.746 199.402 344.098H195.23V341.18ZM211.379 346.137H217.719V350.156H206.773V333.352H217.52V337.359H211.379V339.832H216.898V343.629H211.379V346.137Z" fill="#533466"/>
<defs>
<filter id="filter0_dddd_102_29" x="0" y="0.15625" width="364" height="464" filterUnits="userSpaceOnUse" color-interpolation-filters="sRGB">
<feFlood flood-opacity="0" result="BackgroundImageFix"/>
<feColorMatrix in="SourceAlpha" type="matrix" values="0 0 0 0 0 0 0 0 0 0 0 0 0 0 0 0 0 0 127 0" result="hardAlpha"/>
<feOffset/>
<feGaussianBlur stdDeviation="0.5"/>
<feColorMatrix type="matrix" values="0 0 0 0 0 0 0 0 0 0 0 0 0 0 0 0 0 0 0.04 0"/>
<feBlend mode="normal" in2="BackgroundImageFix" result="effect1_dropShadow_102_29"/>
<feColorMatrix in="SourceAlpha" type="matrix" values="0 0 0 0 0 0 0 0 0 0 0 0 0 0 0 0 0 0 127 0" result="hardAlpha"/>
<feOffset dy="2"/>
<feGaussianBlur stdDeviation="3"/>
<feColorMatrix type="matrix" values="0 0 0 0 0.572549 0 0 0 0 0.360784 0 0 0 0 0.705882 0 0 0 0.08 0"/>
<feBlend mode="normal" in2="effect1_dropShadow_102_29" result="effect2_dropShadow_102_29"/>
<feColorMatrix in="SourceAlpha" type="matrix" values="0 0 0 0 0 0 0 0 0 0 0 0 0 0 0 0 0 0 127 0" result="hardAlpha"/>
<feOffset dy="16"/>
<feGaussianBlur stdDeviation="12"/>
<feColorMatrix type="matrix" values="0 0 0 0 0.572549 0 0 0 0 0.360784 0 0 0 0 0.705882 0 0 0 0.1 0"/>
<feBlend mode="normal" in2="effect2_dropShadow_102_29" result="effect3_dropShadow_102_29"/>
<feColorMatrix in="SourceAlpha" type="matrix" values="0 0 0 0 0 0 0 0 0 0 0 0 0 0 0 0 0 0 127 0" result="hardAlpha"/>
<feOffset dy="24"/>
<feGaussianBlur stdDeviation="16"/>
<feColorMatrix type="matrix" values="0 0 0 0 0.572549 0 0 0 0 0.360784 0 0 0 0 0.705882 0 0 0 0.14 0"/>
<feBlend mode="normal" in2="effect3_dropShadow_102_29" result="effect4_dropShadow_102_29"/>
<feBlend mode="normal" in="SourceGraphic" in2="effect4_dropShadow_102_29" result="shape"/>
</filter>
<filter id="filter1_dddd_102_29" x="0" y="0.15625" width="364" height="464" filterUnits="userSpaceOnUse" color-interpolation-filters="sRGB">
<feFlood flood-opacity="0" result="BackgroundImageFix"/>
<feColorMatrix in="SourceAlpha" type="matrix" values="0 0 0 0 0 0 0 0 0 0 0 0 0 0 0 0 0 0 127 0" result="hardAlpha"/>
<feOffset/>
<feGaussianBlur stdDeviation="0.5"/>
<feColorMatrix type="matrix" values="0 0 0 0 0 0 0 0 0 0 0 0 0 0 0 0 0 0 0.04 0"/>
<feBlend mode="normal" in2="BackgroundImageFix" result="effect1_dropShadow_102_29"/>
<feColorMatrix in="SourceAlpha" type="matrix" values="0 0 0 0 0 0 0 0 0 0 0 0 0 0 0 0 0 0 127 0" result="hardAlpha"/>
<feOffset dy="2"/>
<feGaussianBlur stdDeviation="3"/>
<feColorMatrix type="matrix" values="0 0 0 0 0.572549 0 0 0 0 0.360784 0 0 0 0 0.705882 0 0 0 0.08 0"/>
<feBlend mode="normal" in2="effect1_dropShadow_102_29" result="effect2_dropShadow_102_29"/>
<feColorMatrix in="SourceAlpha" type="matrix" values="0 0 0 0 0 0 0 0 0 0 0 0 0 0 0 0 0 0 127 0" result="hardAlpha"/>
<feOffset dy="16"/>
<feGaussianBlur stdDeviation="12"/>
<feColorMatrix type="matrix" values="0 0 0 0 0.572549 0 0 0 0 0.360784 0 0 0 0 0.705882 0 0 0 0.1 0"/>
<feBlend mode="normal" in2="effect2_dropShadow_102_29" result="effect3_dropShadow_102_29"/>
<feColorMatrix in="SourceAlpha" type="matrix" values="0 0 0 0 0 0 0 0 0 0 0 0 0 0 0 0 0 0 127 0" result="hardAlpha"/>
<feOffset dy="24"/>
<feGaussianBlur stdDeviation="16"/>
<feColorMatrix type="matrix" values="0 0 0 0 0.572549 0 0 0 0 0.360784 0 0 0 0 0.705882 0 0 0 0.14 0"/>
<feBlend mode="normal" in2="effect3_dropShadow_102_29" result="effect4_dropShadow_102_29"/>
<feBlend mode="normal" in="SourceGraphic" in2="effect4_dropShadow_102_29" result="shape"/>
</filter>
<clipPath id="clip0_102_29">
<rect width="140" height="140" fill="white" transform="translate(112 108.156)"/>
</clipPath>
</defs>
</svg>
