<svg width="364" height="465" viewBox="0 0 364 465" fill="none" xmlns="http://www.w3.org/2000/svg">
<g filter="url(#filter0_dddd_102_2062)">
<rect x="32" y="8.15625" width="300" height="400" rx="80" fill="white"/>
</g>
<rect opacity="0.3" x="32" y="8.15625" width="300" height="400" rx="80" fill="#3BCD92"/>
<circle opacity="0.4" cx="182" cy="168.156" r="80" fill="#3BCD92"/>
<circle cx="182" cy="168.156" r="78" stroke="#1D6649" stroke-width="4"/>
<g clip-path="url(#clip0_102_2062)">
<path d="M214.227 155.417V219.12C214.227 223.344 211.262 226.4 207.605 226.4H156.395C152.738 226.4 149.773 223.344 149.773 219.12V155.417C149.773 148.333 155.703 142.222 163.017 142.222H169.639V119.016H194.361V142.222H200.983C208.297 142.222 214.227 148.333 214.227 155.417Z" fill="#E5E5E5"/>
<path d="M163.606 226.4H156.395C152.738 226.4 149.773 223.344 149.773 219.119V155.417C149.773 148.333 155.703 142.222 163.017 142.222H169.639V119.016H176.85V137.671C176.85 140.184 174.873 142.222 172.435 142.222H170.228C162.913 142.222 156.984 148.333 156.984 155.417V219.12C156.984 223.344 159.949 226.4 163.606 226.4Z" fill="#C8C8C8"/>
<path d="M186.278 134.94H177.722C176.427 134.94 175.378 133.891 175.378 132.596V112.258C175.378 110.963 176.427 109.914 177.722 109.914H186.278C187.572 109.914 188.622 110.963 188.622 112.258V132.596C188.622 133.891 187.572 134.94 186.278 134.94Z" fill="#7F787A"/>
<path d="M195.384 127.725H168.616C166.675 127.725 165.101 126.151 165.101 124.209V122.531C165.101 120.59 166.675 119.016 168.616 119.016H195.384C197.326 119.016 198.9 120.59 198.9 122.531V124.209C198.9 126.151 197.326 127.725 195.384 127.725Z" fill="#B4B4B4"/>
<path d="M195.588 127.725H175.474C173.646 127.725 172.163 126.197 172.163 124.313V122.428C172.163 120.544 173.646 119.016 175.474 119.016H195.588C197.417 119.016 198.899 120.544 198.899 122.428V124.313C198.899 126.197 197.417 127.725 195.588 127.725Z" fill="#C8C8C8"/>
<path d="M214.227 171.023V180.76V219.573C214.227 223.343 211.262 226.399 207.605 226.399H156.395C152.738 226.399 149.773 223.343 149.773 219.573V180.76V171.023C150.968 169.814 152.603 169.066 154.409 169.066C156.713 169.066 158.741 170.28 159.927 172.119C161.113 170.28 163.141 169.066 165.445 169.066C167.749 169.066 169.777 170.28 170.964 172.119C172.15 170.28 174.178 169.066 176.482 169.066C178.786 169.066 180.814 170.28 182 172.119C183.187 170.28 185.215 169.066 187.519 169.066C189.823 169.066 191.851 170.28 193.037 172.119C194.223 170.28 196.252 169.066 198.556 169.066C200.859 169.066 202.888 170.28 204.074 172.119C205.26 170.28 207.288 169.066 209.592 169.066C211.397 169.066 213.032 169.814 214.227 171.023Z" fill="#3BCD92"/>
<path d="M156.984 221.545C156.984 223.463 157.596 225.139 158.606 226.399H156.395C152.738 226.399 149.773 223.343 149.773 219.573V180.76V171.023C150.968 169.814 152.603 169.066 154.409 169.066C155.323 169.066 156.192 169.26 156.984 169.605V221.545ZM186.194 210.018C184.365 210.018 182.883 211.546 182.883 213.431C182.883 215.315 184.365 216.843 186.194 216.843C188.022 216.843 189.505 215.315 189.505 213.431C189.505 211.546 188.022 210.018 186.194 210.018ZM199.438 191.817C196.39 191.817 193.919 194.364 193.919 197.505C193.919 200.646 196.39 203.193 199.438 203.193C202.485 203.193 204.956 200.646 204.956 197.505C204.956 194.364 202.485 191.817 199.438 191.817Z" fill="#1D6649"/>
<path d="M198.291 175.598C194.932 180.579 190.647 184.822 185.686 188.084L182.913 189.907C182.356 190.273 181.644 190.273 181.088 189.907L178.314 188.084C173.353 184.823 169.068 180.579 165.71 175.598C163.109 171.578 163.623 166.224 166.938 162.808C170.616 159.017 176.579 159.017 180.256 162.808L180.8 163.368C181.463 164.052 182.537 164.052 183.2 163.368L183.744 162.808C187.422 159.017 193.384 159.017 197.062 162.808C200.377 166.224 200.891 171.578 198.291 175.598Z" fill="#FF4040"/>
<path d="M165.709 175.599C164.454 173.658 163.927 171.407 164.088 169.212C164.526 169.118 164.98 169.066 165.445 169.066C167.749 169.066 169.777 170.28 170.964 172.119C172.15 170.28 174.178 169.066 176.482 169.066C178.786 169.066 180.814 170.28 182 172.119C183.187 170.28 185.215 169.066 187.519 169.066C189.823 169.066 191.851 170.28 193.037 172.119C194.223 170.28 196.251 169.066 198.555 169.066C199.021 169.066 199.475 169.118 199.913 169.212C200.074 171.407 199.547 173.658 198.291 175.599C194.932 180.58 190.648 184.824 185.686 188.085L182.913 189.908C182.357 190.274 181.645 190.274 181.088 189.908L178.315 188.085C173.353 184.824 169.068 180.58 165.709 175.599Z" fill="#C23C3C"/>
<path d="M211.595 144.923C208.738 142.047 204.969 140.462 200.983 140.462H196.119V129.429C198.68 129.071 200.657 126.867 200.657 124.208V122.53C200.657 119.622 198.292 117.257 195.384 117.257H190.379V112.189C190.38 109.965 188.601 108.156 186.415 108.156H177.585C175.399 108.156 173.62 109.965 173.62 112.189V117.257H168.616C165.708 117.257 163.342 119.622 163.342 122.53V124.208C163.342 126.867 165.32 129.071 167.881 129.429V140.462H163.017C159.03 140.462 155.261 142.047 152.405 144.923C149.574 147.773 148.016 151.5 148.016 155.416V203.306C148.016 204.277 148.802 205.064 149.773 205.064C150.744 205.064 151.531 204.277 151.531 203.306V171.817C152.363 171.176 153.362 170.824 154.409 170.824C156.031 170.824 157.542 171.664 158.45 173.072C158.773 173.574 159.33 173.877 159.927 173.877C160.524 173.877 161.081 173.574 161.405 173.072C161.698 172.616 162.056 172.221 162.46 171.893C162.716 173.523 163.302 175.114 164.233 176.554C164.239 176.564 164.246 176.573 164.252 176.582C167.759 181.782 172.165 186.147 177.349 189.554L180.122 191.377C180.692 191.752 181.346 191.939 182 191.939C182.654 191.939 183.308 191.751 183.878 191.376L186.651 189.554C191.835 186.147 196.241 181.782 199.748 176.582C199.754 176.572 199.761 176.563 199.767 176.554C200.698 175.114 201.284 173.522 201.54 171.893C201.944 172.221 202.302 172.616 202.595 173.072C202.919 173.574 203.476 173.877 204.073 173.877C204.67 173.877 205.227 173.574 205.55 173.072C206.458 171.664 207.969 170.824 209.591 170.824C210.638 170.824 211.637 171.175 212.469 171.816V219.118C212.469 222.266 210.378 224.641 207.605 224.641H156.395C153.622 224.641 151.531 222.266 151.531 219.118V210.246C151.531 209.275 150.744 208.488 149.773 208.488C148.802 208.488 148.016 209.275 148.016 210.246V219.118C148.016 224.186 151.696 228.156 156.395 228.156H207.605C212.304 228.156 215.984 224.186 215.984 219.118V155.416C215.984 151.5 214.426 147.773 211.595 144.923ZM177.136 112.189C177.136 111.904 177.337 111.672 177.585 111.672H186.415C186.662 111.672 186.864 111.904 186.864 112.189V117.257H177.136V112.189ZM166.858 124.208V122.53C166.858 121.561 167.647 120.772 168.616 120.772H195.384C196.354 120.772 197.142 121.561 197.142 122.53V124.208C197.142 125.177 196.354 125.966 195.384 125.966H168.616C167.647 125.966 166.858 125.177 166.858 124.208ZM177.136 129.482H186.864V132.665C186.864 132.95 186.662 133.182 186.415 133.182H177.585C177.337 133.182 177.136 132.95 177.136 132.665V129.482ZM184.72 186.616L182 188.404L179.28 186.616C174.492 183.469 170.42 179.437 167.176 174.631C166.427 173.468 165.994 172.166 165.863 170.845C167.324 170.976 168.657 171.786 169.486 173.072C169.81 173.574 170.366 173.877 170.964 173.877C171.561 173.877 172.117 173.574 172.441 173.072C173.348 171.664 174.859 170.824 176.482 170.824C178.104 170.824 179.615 171.664 180.522 173.072C180.846 173.574 181.403 173.877 182 173.877C182.597 173.877 183.154 173.574 183.477 173.072C184.385 171.665 185.896 170.824 187.518 170.824C189.141 170.824 190.651 171.664 191.559 173.072C191.883 173.574 192.439 173.877 193.036 173.877C193.634 173.877 194.19 173.574 194.514 173.072C195.343 171.786 196.676 170.976 198.137 170.845C198.006 172.167 197.572 173.47 196.822 174.633C193.578 179.438 189.507 183.47 184.72 186.616ZM166.227 167.346C166.615 166.126 167.275 164.986 168.2 164.033C169.644 162.544 171.561 161.724 173.597 161.724C175.633 161.724 177.55 162.544 178.994 164.033L179.538 164.594C180.193 165.269 181.067 165.64 182 165.64C182.933 165.64 183.807 165.269 184.462 164.594L185.005 164.033C186.45 162.544 188.367 161.724 190.403 161.724C192.438 161.724 194.355 162.544 195.8 164.033C196.725 164.986 197.385 166.127 197.772 167.346C196.004 167.515 194.352 168.25 193.036 169.431C191.527 168.077 189.578 167.309 187.518 167.309C185.458 167.309 183.508 168.077 182 169.431C180.491 168.077 178.541 167.309 176.481 167.309C174.421 167.309 172.471 168.077 170.963 169.431C169.647 168.25 167.995 167.514 166.227 167.346ZM209.591 167.309C207.531 167.309 205.582 168.077 204.073 169.431C203.314 168.749 202.443 168.217 201.503 167.855C201.096 165.541 200.026 163.339 198.324 161.585C196.211 159.407 193.398 158.208 190.403 158.208C187.408 158.208 184.595 159.408 182.482 161.585L182 162.082L181.518 161.585C179.405 159.407 176.592 158.208 173.597 158.208C170.602 158.208 167.789 159.407 165.676 161.585C163.974 163.339 162.904 165.54 162.497 167.855C161.557 168.216 160.686 168.749 159.927 169.431C158.418 168.077 156.469 167.308 154.409 167.308C153.412 167.308 152.442 167.488 151.531 167.829V155.416C151.531 149.216 156.791 143.978 163.017 143.978H169.639C170.61 143.978 171.397 143.191 171.397 142.22V129.482H173.62V132.665C173.62 134.889 175.399 136.698 177.585 136.698H186.415C188.601 136.698 190.38 134.889 190.38 132.665V129.482H192.603V142.22C192.603 143.191 193.39 143.978 194.361 143.978H200.983C207.209 143.978 212.469 149.216 212.469 155.416V167.829C211.558 167.488 210.588 167.309 209.591 167.309ZM206.714 197.505C206.714 193.399 203.45 190.059 199.438 190.059C195.425 190.059 192.162 193.399 192.162 197.505C192.162 201.61 195.425 204.951 199.438 204.951C203.45 204.951 206.714 201.61 206.714 197.505ZM195.677 197.505C195.677 195.338 197.364 193.575 199.438 193.575C201.511 193.575 203.198 195.338 203.198 197.505C203.198 199.672 201.511 201.435 199.438 201.435C197.364 201.435 195.677 199.672 195.677 197.505ZM191.263 213.43C191.263 210.58 188.989 208.26 186.194 208.26C183.399 208.26 181.125 210.579 181.125 213.43C181.125 216.282 183.399 218.601 186.194 218.601C188.989 218.601 191.263 216.281 191.263 213.43ZM184.641 213.43C184.641 212.518 185.338 211.776 186.194 211.776C187.05 211.776 187.747 212.518 187.747 213.43C187.747 214.343 187.05 215.085 186.194 215.085C185.338 215.085 184.641 214.343 184.641 213.43Z" fill="black"/>
</g>
<path d="M138.922 350.566C136.852 350.566 135.203 350.047 133.977 349.008C132.758 347.969 132.148 346.543 132.148 344.73H136.918C136.918 345.301 137.105 345.742 137.48 346.055C137.863 346.359 138.336 346.512 138.898 346.512C139.414 346.512 139.859 346.383 140.234 346.125C140.609 345.867 140.797 345.52 140.797 345.082C140.797 344.91 140.766 344.758 140.703 344.625C140.648 344.484 140.543 344.359 140.387 344.25C140.23 344.133 140.086 344.039 139.953 343.969C139.828 343.891 139.621 343.809 139.332 343.723C139.051 343.637 138.832 343.574 138.676 343.535C138.52 343.488 138.258 343.422 137.891 343.336C136.547 343 135.578 342.688 134.984 342.398C133.477 341.672 132.617 340.535 132.406 338.988C132.375 338.73 132.359 338.457 132.359 338.168C132.359 336.527 132.926 335.25 134.059 334.336C135.199 333.422 136.766 332.965 138.758 332.965C140.766 332.965 142.324 333.449 143.434 334.418C144.543 335.387 145.098 336.73 145.098 338.449H140.445C140.445 337.941 140.281 337.555 139.953 337.289C139.625 337.016 139.207 336.879 138.699 336.879C138.254 336.879 137.871 336.98 137.551 337.184C137.238 337.379 137.082 337.66 137.082 338.027C137.082 338.184 137.109 338.324 137.164 338.449C137.227 338.574 137.332 338.691 137.48 338.801C137.629 338.902 137.77 338.992 137.902 339.07C138.035 339.141 138.234 339.219 138.5 339.305C138.773 339.383 138.992 339.445 139.156 339.492C139.32 339.539 139.578 339.605 139.93 339.691C140.297 339.785 140.582 339.859 140.785 339.914C140.988 339.969 141.273 340.055 141.641 340.172C142.008 340.289 142.301 340.398 142.52 340.5C142.738 340.594 143.004 340.727 143.316 340.898C143.637 341.07 143.891 341.242 144.078 341.414C144.273 341.586 144.48 341.801 144.699 342.059C144.918 342.309 145.086 342.574 145.203 342.855C145.328 343.129 145.43 343.449 145.508 343.816C145.594 344.184 145.637 344.574 145.637 344.988C145.637 346.77 145.02 348.145 143.785 349.113C142.559 350.082 140.938 350.566 138.922 350.566ZM155.211 333.352C157 333.352 158.484 333.926 159.664 335.074C160.844 336.215 161.434 337.664 161.434 339.422C161.434 341.18 160.844 342.637 159.664 343.793C158.484 344.941 157 345.516 155.211 345.516H152.691V350.156H148.062V333.352H155.211ZM154.66 341.473C155.262 341.473 155.746 341.285 156.113 340.91C156.488 340.527 156.676 340.035 156.676 339.434C156.676 338.832 156.488 338.344 156.113 337.969C155.746 337.586 155.262 337.395 154.66 337.395H152.691V341.473H154.66ZM168.137 346.137H174.477V350.156H163.531V333.352H174.277V337.359H168.137V339.832H173.656V343.629H168.137V346.137ZM184.965 350.578C183.285 350.578 181.762 350.195 180.395 349.43C179.035 348.664 177.969 347.609 177.195 346.266C176.422 344.922 176.035 343.422 176.035 341.766C176.035 340.102 176.422 338.598 177.195 337.254C177.969 335.902 179.035 334.844 180.395 334.078C181.762 333.312 183.285 332.93 184.965 332.93C187.168 332.93 189.047 333.594 190.602 334.922C192.164 336.242 193.117 337.969 193.461 340.102H188.773C188.484 339.234 188 338.543 187.32 338.027C186.641 337.512 185.859 337.254 184.977 337.254C183.789 337.254 182.805 337.68 182.023 338.531C181.242 339.383 180.852 340.461 180.852 341.766C180.852 343.062 181.242 344.133 182.023 344.977C182.805 345.82 183.789 346.242 184.977 346.242C185.906 346.242 186.711 345.965 187.391 345.41C188.078 344.848 188.539 344.098 188.773 343.16H193.508C193.188 345.371 192.242 347.16 190.672 348.527C189.102 349.895 187.199 350.578 184.965 350.578ZM195.734 350.156V333.352H200.422V350.156H195.734ZM214.812 350.156L213.887 347.426H207.934L207.008 350.156H202.051L208.648 333.352H213.172L219.91 350.156H214.812ZM212.762 343.805L210.898 338.602L209.059 343.805H212.762ZM226.227 345.914H232.203V350.156H221.539V333.352H226.227V345.914Z" fill="#3BCD92"/>
<defs>
<filter id="filter0_dddd_102_2062" x="0" y="0.15625" width="364" height="464" filterUnits="userSpaceOnUse" color-interpolation-filters="sRGB">
<feFlood flood-opacity="0" result="BackgroundImageFix"/>
<feColorMatrix in="SourceAlpha" type="matrix" values="0 0 0 0 0 0 0 0 0 0 0 0 0 0 0 0 0 0 127 0" result="hardAlpha"/>
<feOffset/>
<feGaussianBlur stdDeviation="0.5"/>
<feColorMatrix type="matrix" values="0 0 0 0 0 0 0 0 0 0 0 0 0 0 0 0 0 0 0.04 0"/>
<feBlend mode="normal" in2="BackgroundImageFix" result="effect1_dropShadow_102_2062"/>
<feColorMatrix in="SourceAlpha" type="matrix" values="0 0 0 0 0 0 0 0 0 0 0 0 0 0 0 0 0 0 127 0" result="hardAlpha"/>
<feOffset dy="2"/>
<feGaussianBlur stdDeviation="3"/>
<feColorMatrix type="matrix" values="0 0 0 0 0.231373 0 0 0 0 0.803922 0 0 0 0 0.572549 0 0 0 0.08 0"/>
<feBlend mode="normal" in2="effect1_dropShadow_102_2062" result="effect2_dropShadow_102_2062"/>
<feColorMatrix in="SourceAlpha" type="matrix" values="0 0 0 0 0 0 0 0 0 0 0 0 0 0 0 0 0 0 127 0" result="hardAlpha"/>
<feOffset dy="16"/>
<feGaussianBlur stdDeviation="12"/>
<feColorMatrix type="matrix" values="0 0 0 0 0.231373 0 0 0 0 0.803922 0 0 0 0 0.572549 0 0 0 0.1 0"/>
<feBlend mode="normal" in2="effect2_dropShadow_102_2062" result="effect3_dropShadow_102_2062"/>
<feColorMatrix in="SourceAlpha" type="matrix" values="0 0 0 0 0 0 0 0 0 0 0 0 0 0 0 0 0 0 127 0" result="hardAlpha"/>
<feOffset dy="24"/>
<feGaussianBlur stdDeviation="16"/>
<feColorMatrix type="matrix" values="0 0 0 0 0.231373 0 0 0 0 0.803922 0 0 0 0 0.572549 0 0 0 0.14 0"/>
<feBlend mode="normal" in2="effect3_dropShadow_102_2062" result="effect4_dropShadow_102_2062"/>
<feBlend mode="normal" in="SourceGraphic" in2="effect4_dropShadow_102_2062" result="shape"/>
</filter>
<clipPath id="clip0_102_2062">
<rect width="120" height="120" fill="white" transform="translate(122 108.156)"/>
</clipPath>
</defs>
</svg>
