<svg width="364" height="465" viewBox="0 0 364 465" fill="none" xmlns="http://www.w3.org/2000/svg">
<g filter="url(#filter0_dddd_102_2060)">
<rect x="32" y="8.15625" width="300" height="400" rx="80" fill="white"/>
</g>
<rect opacity="0.3" x="32" y="8.15625" width="300" height="400" rx="80" fill="#3BCD92"/>
<circle opacity="0.4" cx="182" cy="168.156" r="80" fill="#3BCD92"/>
<g clip-path="url(#clip0_102_2060)">
<path opacity="0.9" fill-rule="evenodd" clip-rule="evenodd" d="M182.098 120.125C172.412 130.319 156.104 131.774 142.68 132.107C140.279 187.362 141.982 195.553 182.098 216.185C222.218 195.553 223.917 187.362 221.516 132.107C208.096 131.774 191.789 130.319 182.098 120.125ZM182.098 203.196C152.857 188.153 151.558 181.872 153.311 141.548C163.086 141.305 174.956 140.524 182.043 133.136L182.098 133.081C189.184 140.47 201.054 141.244 210.829 141.488C212.577 181.817 211.398 188.098 182.159 203.141L182.098 203.196Z" fill="#3BCD92"/>
<path opacity="0.3" fill-rule="evenodd" clip-rule="evenodd" d="M182.042 133.137C174.956 140.525 163.086 141.306 153.311 141.549C151.558 181.873 152.858 188.155 182.097 203.197L182.158 203.142C211.399 188.099 212.577 181.818 210.829 141.489C201.054 141.245 189.184 140.47 182.097 133.082L182.042 133.137ZM176.134 159.47L182.097 151.007L188.066 159.47L197.951 162.53L191.75 170.821L191.9 181.175L182.097 177.838L172.301 181.175L172.445 170.821L166.243 162.53L176.134 159.47Z" fill="#3BCD92"/>
<path fill-rule="evenodd" clip-rule="evenodd" d="M182.098 151.008L176.135 159.47L166.244 162.53L172.445 170.821L172.302 181.176L182.098 177.839L191.9 181.176L191.751 170.821L197.952 162.53L188.066 159.47L182.098 151.008Z" fill="#F5D018"/>
<path d="M223.483 132.023C223.439 130.987 222.6 130.164 221.564 130.139C207.775 129.798 192.472 128.18 183.525 118.769C183.153 118.378 182.637 118.156 182.098 118.156C181.558 118.156 181.042 118.378 180.67 118.769C171.728 128.18 156.423 129.798 142.631 130.139C141.595 130.164 140.756 130.987 140.711 132.023C140.067 146.85 139.78 157.123 140.218 165.754C140.701 175.306 142.067 182.147 144.646 187.933C150.124 200.223 161.253 207.68 181.197 217.938C181.48 218.084 181.789 218.156 182.098 218.156C182.407 218.156 182.716 218.084 182.998 217.939C202.944 207.681 214.074 200.224 219.551 187.933C222.13 182.147 223.495 175.306 223.978 165.754C224.415 157.125 224.128 146.851 223.483 132.023ZM182.098 213.971C143.929 194.231 142.341 186.189 144.568 134.024C157.992 133.574 172.521 131.695 182.098 122.887C191.679 131.696 206.206 133.574 219.627 134.024C221.854 186.191 220.267 194.233 182.098 213.971Z" fill="black"/>
<path d="M210.914 170.276C209.836 170.128 208.843 170.883 208.695 171.96C206.796 185.848 200.346 191.504 182.075 200.97C154.86 186.855 153.613 180.903 155.2 143.466C164.721 143.146 175.028 142.022 182.101 135.805C189.169 141.968 199.445 143.086 208.939 143.405C209.127 147.867 209.244 151.295 209.314 154.347C209.338 155.434 210.241 156.299 211.328 156.271C212.415 156.246 213.277 155.344 213.252 154.256C213.171 150.773 213.031 146.809 212.797 141.405C212.752 140.37 211.913 139.547 210.878 139.521C201.026 139.275 189.974 138.45 183.519 131.72C183.153 131.338 182.648 131.119 182.118 131.113C181.594 131.116 181.08 131.315 180.705 131.69L180.65 131.746C180.64 131.755 180.631 131.766 180.621 131.775C174.162 138.511 163.112 139.336 153.262 139.582C152.227 139.608 151.389 140.43 151.344 141.466C150.492 161.043 150.266 173.585 154.282 182.653C158.379 191.904 166.56 197.42 181.197 204.95C181.482 205.097 181.791 205.168 182.098 205.168C182.504 205.168 182.908 205.042 183.247 204.798C192.419 200.072 199.52 195.883 204.346 190.853C209.039 185.96 211.507 180.47 212.598 172.495C212.745 171.417 211.991 170.424 210.914 170.276Z" fill="black"/>
<path d="M199.824 161.922C199.627 161.314 199.145 160.839 198.533 160.649L189.289 157.787L183.707 149.873C183.338 149.35 182.737 149.039 182.097 149.039C181.456 149.039 180.856 149.35 180.488 149.874L174.911 157.787L165.661 160.649C165.05 160.839 164.569 161.313 164.371 161.922C164.173 162.532 164.283 163.198 164.666 163.711L170.466 171.465L170.331 181.149C170.323 181.79 170.626 182.394 171.144 182.77C171.484 183.018 171.891 183.146 172.301 183.146C172.514 183.146 172.729 183.111 172.936 183.041L182.097 179.92L191.265 183.041C191.871 183.248 192.54 183.146 193.058 182.769C193.575 182.393 193.878 181.788 193.869 181.148L193.729 171.464L199.528 163.711C199.911 163.198 200.022 162.531 199.824 161.922ZM190.173 169.641C189.913 169.99 189.775 170.415 189.781 170.85L189.89 178.411L182.732 175.975C182.321 175.834 181.874 175.834 181.463 175.975L174.309 178.411L174.415 170.849C174.421 170.414 174.283 169.99 174.022 169.641L169.494 163.588L176.717 161.352C177.132 161.224 177.494 160.961 177.745 160.605L182.099 154.426L186.458 160.606C186.708 160.961 187.069 161.223 187.484 161.352L194.703 163.587L190.173 169.641Z" fill="black"/>
<path d="M211.304 161.113C210.217 161.113 209.335 161.995 209.335 163.083V163.121C209.335 164.209 210.217 165.091 211.304 165.091C212.392 165.091 213.274 164.209 213.274 163.121V163.083C213.274 161.995 212.392 161.113 211.304 161.113Z" fill="black"/>
</g>
<circle cx="182" cy="168.156" r="78" stroke="#1D6649" stroke-width="4"/>
<path d="M143.734 333.352C145.406 333.352 146.902 333.707 148.223 334.418C149.543 335.129 150.57 336.125 151.305 337.406C152.039 338.68 152.406 340.125 152.406 341.742C152.406 343.359 152.039 344.809 151.305 346.09C150.57 347.363 149.543 348.359 148.223 349.078C146.902 349.797 145.406 350.156 143.734 350.156H136.938V333.352H143.734ZM143.512 345.914C144.754 345.914 145.754 345.531 146.512 344.766C147.277 343.992 147.66 342.984 147.66 341.742C147.66 340.492 147.277 339.488 146.512 338.73C145.754 337.973 144.754 337.594 143.512 337.594H141.578V345.914H143.512ZM159.426 346.137H165.766V350.156H154.82V333.352H165.566V337.359H159.426V339.832H164.945V343.629H159.426V346.137ZM179.125 337.547H173.102V340.219H178.504V344.273H173.102V350.156H168.438V333.352H179.125V337.547ZM186.191 346.137H192.531V350.156H181.586V333.352H192.332V337.359H186.191V339.832H191.711V343.629H186.191V346.137ZM205.703 333.352H210.18V350.156H206.359L199.68 341.039V350.156H195.203V333.352H199.246L205.703 342.176V333.352ZM220.234 333.352C221.906 333.352 223.402 333.707 224.723 334.418C226.043 335.129 227.07 336.125 227.805 337.406C228.539 338.68 228.906 340.125 228.906 341.742C228.906 343.359 228.539 344.809 227.805 346.09C227.07 347.363 226.043 348.359 224.723 349.078C223.402 349.797 221.906 350.156 220.234 350.156H213.438V333.352H220.234ZM220.012 345.914C221.254 345.914 222.254 345.531 223.012 344.766C223.777 343.992 224.16 342.984 224.16 341.742C224.16 340.492 223.777 339.488 223.012 338.73C222.254 337.973 221.254 337.594 220.012 337.594H218.078V345.914H220.012Z" fill="#3BCD92"/>
<defs>
<filter id="filter0_dddd_102_2060" x="0" y="0.15625" width="364" height="464" filterUnits="userSpaceOnUse" color-interpolation-filters="sRGB">
<feFlood flood-opacity="0" result="BackgroundImageFix"/>
<feColorMatrix in="SourceAlpha" type="matrix" values="0 0 0 0 0 0 0 0 0 0 0 0 0 0 0 0 0 0 127 0" result="hardAlpha"/>
<feOffset/>
<feGaussianBlur stdDeviation="0.5"/>
<feColorMatrix type="matrix" values="0 0 0 0 0 0 0 0 0 0 0 0 0 0 0 0 0 0 0.04 0"/>
<feBlend mode="normal" in2="BackgroundImageFix" result="effect1_dropShadow_102_2060"/>
<feColorMatrix in="SourceAlpha" type="matrix" values="0 0 0 0 0 0 0 0 0 0 0 0 0 0 0 0 0 0 127 0" result="hardAlpha"/>
<feOffset dy="2"/>
<feGaussianBlur stdDeviation="3"/>
<feColorMatrix type="matrix" values="0 0 0 0 0.231373 0 0 0 0 0.803922 0 0 0 0 0.572549 0 0 0 0.08 0"/>
<feBlend mode="normal" in2="effect1_dropShadow_102_2060" result="effect2_dropShadow_102_2060"/>
<feColorMatrix in="SourceAlpha" type="matrix" values="0 0 0 0 0 0 0 0 0 0 0 0 0 0 0 0 0 0 127 0" result="hardAlpha"/>
<feOffset dy="16"/>
<feGaussianBlur stdDeviation="12"/>
<feColorMatrix type="matrix" values="0 0 0 0 0.231373 0 0 0 0 0.803922 0 0 0 0 0.572549 0 0 0 0.1 0"/>
<feBlend mode="normal" in2="effect2_dropShadow_102_2060" result="effect3_dropShadow_102_2060"/>
<feColorMatrix in="SourceAlpha" type="matrix" values="0 0 0 0 0 0 0 0 0 0 0 0 0 0 0 0 0 0 127 0" result="hardAlpha"/>
<feOffset dy="24"/>
<feGaussianBlur stdDeviation="16"/>
<feColorMatrix type="matrix" values="0 0 0 0 0.231373 0 0 0 0 0.803922 0 0 0 0 0.572549 0 0 0 0.14 0"/>
<feBlend mode="normal" in2="effect3_dropShadow_102_2060" result="effect4_dropShadow_102_2060"/>
<feBlend mode="normal" in="SourceGraphic" in2="effect4_dropShadow_102_2060" result="shape"/>
</filter>
<clipPath id="clip0_102_2060">
<rect width="100" height="100" fill="white" transform="translate(132 118.156)"/>
</clipPath>
</defs>
</svg>
