<svg width="364" height="465" viewBox="0 0 364 465" fill="none" xmlns="http://www.w3.org/2000/svg">
<g filter="url(#filter0_dddd_102_2061)">
<rect x="32" y="8.15625" width="300" height="400" rx="80" fill="white"/>
</g>
<rect opacity="0.3" x="32" y="8.15625" width="300" height="400" rx="80" fill="#3BCD92"/>
<circle opacity="0.4" cx="182" cy="168.156" r="80" fill="#3BCD92"/>
<circle cx="182" cy="168.156" r="78" stroke="#1D6649" stroke-width="4"/>
<path d="M224.599 173.635H229.88V192.305H225.702C225.093 192.305 224.599 192.8 224.599 193.409C224.599 195.025 223.289 196.335 221.673 196.335H194.537V192.305V172.901C194.537 171.072 196.02 169.59 197.849 169.59H218.687C220.091 169.59 221.431 170.179 222.381 171.215L224.599 173.635Z" fill="#F2A077"/>
<path d="M224.599 187.838C224.599 187.228 225.093 186.734 225.702 186.734H229.88V192.306H225.702C225.093 192.306 224.599 192.8 224.599 193.409C224.599 195.025 223.289 196.335 221.673 196.335H194.537V192.305V190.763H221.674C223.289 190.764 224.599 189.454 224.599 187.838Z" fill="#D6774D"/>
<path d="M240.242 196.351H231.809C230.744 196.351 229.881 195.488 229.881 194.423V171.518C229.881 170.453 230.744 169.59 231.809 169.59H240.242V196.351Z" fill="#75DC5E"/>
<path d="M229.881 188.57V194.423C229.881 195.488 230.744 196.351 231.809 196.351H240.242V190.498H231.809C230.744 190.498 229.881 189.635 229.881 188.57Z" fill="#2AAD52"/>
<path d="M189.38 166.027H197.455C199.547 166.027 201.243 167.724 201.243 169.816C201.243 171.909 199.547 173.605 197.455 173.605H189.38C187.288 173.605 185.592 171.909 185.592 169.816C185.592 167.724 187.288 166.027 189.38 166.027Z" fill="#E88E6B"/>
<path d="M188.449 173.602H196.523C198.616 173.602 200.312 175.298 200.312 177.39C200.312 179.483 198.616 181.179 196.523 181.179H188.449C186.356 181.179 184.66 179.483 184.66 177.39C184.66 175.298 186.357 173.602 188.449 173.602Z" fill="#F7AA86"/>
<path d="M191.057 181.18H199.131C201.224 181.18 202.92 182.876 202.92 184.968C202.92 187.061 201.224 188.757 199.131 188.757H191.057C188.965 188.757 187.269 187.061 187.269 184.968C187.269 182.876 188.965 181.18 191.057 181.18Z" fill="#E88E6B"/>
<path d="M193.294 188.758H201.368C203.46 188.758 205.156 190.454 205.156 192.546C205.156 194.639 203.46 196.335 201.368 196.335H193.294C191.201 196.335 189.505 194.639 189.505 192.546C189.505 190.454 191.201 188.758 193.294 188.758Z" fill="#FFCCAA"/>
<path d="M211.893 161.145C212.556 161.145 213.203 161.35 213.745 161.733L221.606 167.288C223.483 168.615 224.599 170.771 224.599 173.07V176.05C224.599 179.517 221.789 182.327 218.322 182.327H216.008C210.159 182.327 205.419 177.586 205.419 171.738V171.079C205.419 170.263 204.757 169.601 203.94 169.601C203.124 169.601 202.462 170.263 202.462 171.079V174.925C202.462 178.517 199.55 181.428 195.959 181.428C194.803 181.428 193.865 180.491 193.865 179.334V165.911C193.865 163.279 195.999 161.145 198.631 161.145H211.893V161.145Z" fill="#FFCCAA"/>
<path d="M132.191 196.351H123.758V169.59H132.191C133.256 169.59 134.119 170.453 134.119 171.518V194.423C134.119 195.488 133.256 196.351 132.191 196.351Z" fill="#2BB4F3"/>
<path d="M134.119 188.57V194.423C134.119 195.488 133.256 196.351 132.191 196.351H123.758V190.498H132.191C133.256 190.498 134.119 189.635 134.119 188.57Z" fill="#1687C4"/>
<path d="M139.401 173.636V173.069C139.401 170.771 140.517 168.615 142.394 167.288L150.255 161.733C150.797 161.35 151.444 161.145 152.107 161.145H163.18C165.812 161.145 167.946 163.278 167.946 165.911V166.025H174.62C176.712 166.025 178.408 167.722 178.408 169.814C178.408 171.907 176.712 173.603 174.62 173.603H175.551C177.644 173.603 179.34 175.299 179.34 177.391C179.34 179.484 177.644 181.18 175.551 181.18H172.943C175.035 181.18 176.731 182.876 176.731 184.969C176.731 187.061 175.035 188.757 172.943 188.757H170.707C172.799 188.757 174.495 190.454 174.495 192.546C174.495 194.639 172.799 196.335 170.707 196.335H169.463H162.633H142.326C140.71 196.335 139.401 195.025 139.401 193.409C139.401 192.8 138.906 192.306 138.297 192.306H134.119V173.636H139.401Z" fill="#D7875F"/>
<path d="M139.401 187.935C139.401 189.551 140.711 190.861 142.326 190.861H162.633H169.463H170.707C171.722 190.861 172.643 190.459 173.323 189.808C174.044 190.498 174.495 191.467 174.495 192.544C174.495 194.637 172.799 196.333 170.707 196.333H169.463H162.633H142.326C140.71 196.333 139.401 195.023 139.401 193.407C139.401 192.798 138.906 192.304 138.297 192.304H134.119V186.832H138.297C138.907 186.832 139.401 187.326 139.401 187.935Z" fill="#B05A3D"/>
<path d="M240.242 194.594H231.809C231.715 194.594 231.639 194.517 231.639 194.423V171.518C231.639 171.425 231.715 171.348 231.809 171.348H240.242C241.213 171.348 242 170.561 242 169.59C242 168.62 241.213 167.833 240.242 167.833H231.809C229.776 167.833 228.123 169.486 228.123 171.518V171.878H226.273C225.944 169.469 224.632 167.275 222.62 165.853L214.76 160.298C213.917 159.702 212.926 159.387 211.893 159.387H209.956C208.986 159.387 208.199 160.174 208.199 161.145C208.199 162.115 208.986 162.902 209.956 162.902H211.893C212.195 162.902 212.484 162.994 212.731 163.169L220.591 168.724C222.001 169.72 222.842 171.344 222.842 173.07V178.019C222.842 178.989 223.629 179.776 224.6 179.776C225.57 179.776 226.357 178.989 226.357 178.019V175.393H228.123V190.548H225.704C224.126 190.548 222.842 191.832 222.842 193.41C222.842 193.721 222.721 194.013 222.499 194.234C222.278 194.455 221.985 194.577 221.673 194.577H206.528C206.776 193.948 206.914 193.263 206.914 192.546C206.914 190.433 205.726 188.593 203.984 187.657C204.436 186.845 204.678 185.926 204.678 184.97C204.678 183.04 203.688 181.339 202.19 180.344C203.361 178.999 204.106 177.273 204.209 175.378C205.767 180.415 210.467 184.084 216.008 184.084C216.979 184.084 217.766 183.297 217.766 182.326C217.766 181.355 216.979 180.568 216.008 180.568C211.138 180.568 207.177 176.607 207.177 171.737V171.079C207.177 169.294 205.725 167.842 203.94 167.842C203.078 167.842 202.266 168.179 201.654 168.79C201.042 169.402 200.706 170.214 200.706 171.079V174.925C200.706 177.542 198.577 179.671 195.96 179.671C195.891 179.671 195.842 179.652 195.813 179.636C195.805 179.632 195.798 179.628 195.79 179.624C195.77 179.613 195.751 179.599 195.72 179.567C195.676 179.524 195.624 179.449 195.624 179.333V173.603V165.91C195.624 164.252 196.973 162.903 198.631 162.903H202.66C203.631 162.903 204.418 162.116 204.418 161.145C204.418 160.175 203.631 159.388 202.66 159.388H198.631C195.602 159.388 193.049 161.464 192.318 164.267H189.38C187.896 164.267 186.503 164.846 185.459 165.893C184.412 166.94 183.835 168.333 183.835 169.815C183.835 171.048 184.24 172.188 184.923 173.11C184.787 173.223 184.656 173.342 184.53 173.468C183.48 174.515 182.902 175.908 182.902 177.392C182.902 179.621 184.225 181.546 186.127 182.426C185.725 183.202 185.511 184.069 185.511 184.97C185.511 187.083 186.7 188.923 188.444 189.859C188.001 190.655 187.747 191.572 187.747 192.546C187.747 195.604 190.235 198.093 193.294 198.093H201.368C201.372 198.093 201.377 198.092 201.381 198.092H221.673C222.924 198.092 224.1 197.605 224.982 196.722C225.713 195.995 226.173 195.068 226.313 194.063H228.123V194.423C228.123 196.455 229.777 198.109 231.809 198.109H240.242C241.213 198.109 242 197.322 242 196.351C242 195.38 241.213 194.594 240.242 194.594ZM189.625 183.532C190.006 183.149 190.516 182.938 191.059 182.938H194.601C195.032 183.101 195.494 183.186 195.96 183.186C196.654 183.186 197.328 183.1 197.973 182.938H199.133C200.252 182.938 201.163 183.85 201.163 184.97C201.163 185.511 200.952 186.02 200.565 186.405C200.183 186.788 199.674 186.999 199.133 186.999H191.059C189.938 186.999 189.027 186.089 189.027 184.97C189.027 184.427 189.237 183.918 189.625 183.532ZM188.45 179.422C187.329 179.422 186.418 178.512 186.418 177.393C186.418 176.85 186.629 176.34 187.016 175.954C187.398 175.571 187.907 175.361 188.45 175.361H189.38H192.109V179.333C192.109 179.363 192.109 179.393 192.11 179.422H191.059H188.45ZM187.947 168.377C188.328 167.994 188.838 167.783 189.38 167.783H192.109V171.845H189.38C188.261 171.845 187.351 170.934 187.351 169.815C187.351 169.272 187.562 168.762 187.947 168.377ZM191.263 192.546C191.263 191.426 192.174 190.515 193.294 190.515H201.368C202.488 190.515 203.399 191.426 203.399 192.546C203.399 193.664 202.491 194.573 201.375 194.577H194.537C194.534 194.577 194.532 194.577 194.53 194.577H193.293C192.174 194.577 191.263 193.666 191.263 192.546Z" fill="black"/>
<path d="M179.076 173.112C179.761 172.19 180.166 171.048 180.166 169.814C180.166 166.756 177.678 164.268 174.619 164.268C172.838 164.268 171.27 164.268 169.494 164.268C168.763 161.463 166.209 159.387 163.179 159.387H152.106C151.074 159.387 150.083 159.702 149.24 160.298L141.379 165.853C139.367 167.275 138.052 169.469 137.724 171.878H135.877V171.518C135.877 169.486 134.223 167.833 132.191 167.833H123.758C122.787 167.833 122 168.62 122 169.59C122 170.561 122.787 171.348 123.758 171.348H132.191C132.285 171.348 132.361 171.425 132.361 171.518C132.361 195.858 132.456 194.594 132.191 194.594H123.758C122.787 194.594 122 195.381 122 196.351C122 197.322 122.787 198.109 123.758 198.109H132.191C134.224 198.109 135.877 196.456 135.877 194.423V194.064H137.689C138.008 196.337 139.966 198.093 142.326 198.093H147.54C148.51 198.093 149.297 197.306 149.297 196.335C149.297 195.364 148.51 194.577 147.54 194.577H142.326C141.682 194.577 141.159 194.053 141.159 193.409C141.159 191.832 139.875 190.548 138.297 190.548H135.877V175.394H139.4C140.371 175.394 141.158 174.607 141.158 173.636V173.069C141.158 171.344 141.999 169.719 143.409 168.724L151.269 163.168C151.516 162.994 151.805 162.902 152.107 162.902H163.18C164.232 162.902 165.159 163.446 165.696 164.267H160.357C159.386 164.267 158.599 165.054 158.599 166.025C158.599 166.996 159.386 167.783 160.357 167.783C165.885 167.783 169.431 167.783 174.62 167.783C175.739 167.783 176.65 168.694 176.65 169.814C176.65 170.933 175.739 171.844 174.62 171.844C173.649 171.844 172.862 172.631 172.862 173.602C172.862 174.573 173.649 175.36 174.62 175.36H175.551C176.671 175.36 177.582 176.271 177.582 177.391C177.582 178.511 176.671 179.422 175.551 179.422H172.943C171.972 179.422 171.185 180.209 171.185 181.18C171.185 182.15 171.972 182.937 172.943 182.937C174.062 182.937 174.973 183.848 174.973 184.968C174.973 186.088 174.062 186.999 172.943 186.999H170.707C169.736 186.999 168.949 187.786 168.949 188.757C168.949 189.728 169.736 190.515 170.707 190.515C171.826 190.515 172.737 191.426 172.737 192.546C172.737 193.666 171.826 194.577 170.707 194.577H154.835C153.864 194.577 153.077 195.364 153.077 196.335C153.077 197.305 153.864 198.092 154.835 198.092H170.707C173.765 198.092 176.253 195.604 176.253 192.546C176.253 191.572 176.001 190.655 175.558 189.859C177.301 188.923 178.489 187.082 178.489 184.969C178.489 184.054 178.266 183.19 177.872 182.428C179.775 181.548 181.098 179.621 181.098 177.391C181.098 175.671 180.31 174.13 179.076 173.112Z" fill="black"/>
<path d="M183.758 153.458V139.961C183.758 138.99 182.971 138.203 182 138.203C181.029 138.203 180.242 138.99 180.242 139.961V153.458C180.242 154.428 181.029 155.215 182 155.215C182.971 155.215 183.758 154.428 183.758 153.458Z" fill="black"/>
<path d="M172.375 157.779C172.7 158.343 173.291 158.658 173.899 158.658C174.197 158.658 174.499 158.582 174.776 158.422C175.617 157.937 175.905 156.862 175.419 156.021L168.671 144.332C168.186 143.492 167.11 143.203 166.27 143.689C165.429 144.174 165.141 145.249 165.626 146.09L172.375 157.779Z" fill="black"/>
<path d="M189.224 158.422C189.501 158.582 189.803 158.658 190.101 158.658C190.709 158.658 191.3 158.342 191.625 157.779L198.374 146.09C198.859 145.25 198.571 144.174 197.73 143.689C196.889 143.203 195.814 143.491 195.329 144.332L188.581 156.021C188.095 156.862 188.383 157.937 189.224 158.422Z" fill="black"/>
<path d="M146.809 350.156L145.883 347.426H139.93L139.004 350.156H134.047L140.645 333.352H145.168L151.906 350.156H146.809ZM144.758 343.805L142.895 338.602L141.055 343.805H144.758ZM164.422 333.352V337.523H159.852V350.156H155.211V337.523H150.641V333.352H164.422ZM179.094 333.352V337.523H174.523V350.156H169.883V337.523H165.312V333.352H179.094ZM190.59 350.156L189.664 347.426H183.711L182.785 350.156H177.828L184.426 333.352H188.949L195.688 350.156H190.59ZM188.539 343.805L186.676 338.602L184.836 343.805H188.539ZM204.57 350.578C202.891 350.578 201.367 350.195 200 349.43C198.641 348.664 197.574 347.609 196.801 346.266C196.027 344.922 195.641 343.422 195.641 341.766C195.641 340.102 196.027 338.598 196.801 337.254C197.574 335.902 198.641 334.844 200 334.078C201.367 333.312 202.891 332.93 204.57 332.93C206.773 332.93 208.652 333.594 210.207 334.922C211.77 336.242 212.723 337.969 213.066 340.102H208.379C208.09 339.234 207.605 338.543 206.926 338.027C206.246 337.512 205.465 337.254 204.582 337.254C203.395 337.254 202.41 337.68 201.629 338.531C200.848 339.383 200.457 340.461 200.457 341.766C200.457 343.062 200.848 344.133 201.629 344.977C202.41 345.82 203.395 346.242 204.582 346.242C205.512 346.242 206.316 345.965 206.996 345.41C207.684 344.848 208.145 344.098 208.379 343.16H213.113C212.793 345.371 211.848 347.16 210.277 348.527C208.707 349.895 206.805 350.578 204.57 350.578ZM230.27 350.156H224.785L219.969 342.738V350.156H215.34V333.352H219.969V340.441L224.398 333.352H229.766L224.387 341.496L230.27 350.156Z" fill="#3BCD92"/>
<defs>
<filter id="filter0_dddd_102_2061" x="0" y="0.15625" width="364" height="464" filterUnits="userSpaceOnUse" color-interpolation-filters="sRGB">
<feFlood flood-opacity="0" result="BackgroundImageFix"/>
<feColorMatrix in="SourceAlpha" type="matrix" values="0 0 0 0 0 0 0 0 0 0 0 0 0 0 0 0 0 0 127 0" result="hardAlpha"/>
<feOffset/>
<feGaussianBlur stdDeviation="0.5"/>
<feColorMatrix type="matrix" values="0 0 0 0 0 0 0 0 0 0 0 0 0 0 0 0 0 0 0.04 0"/>
<feBlend mode="normal" in2="BackgroundImageFix" result="effect1_dropShadow_102_2061"/>
<feColorMatrix in="SourceAlpha" type="matrix" values="0 0 0 0 0 0 0 0 0 0 0 0 0 0 0 0 0 0 127 0" result="hardAlpha"/>
<feOffset dy="2"/>
<feGaussianBlur stdDeviation="3"/>
<feColorMatrix type="matrix" values="0 0 0 0 0.231373 0 0 0 0 0.803922 0 0 0 0 0.572549 0 0 0 0.08 0"/>
<feBlend mode="normal" in2="effect1_dropShadow_102_2061" result="effect2_dropShadow_102_2061"/>
<feColorMatrix in="SourceAlpha" type="matrix" values="0 0 0 0 0 0 0 0 0 0 0 0 0 0 0 0 0 0 127 0" result="hardAlpha"/>
<feOffset dy="16"/>
<feGaussianBlur stdDeviation="12"/>
<feColorMatrix type="matrix" values="0 0 0 0 0.231373 0 0 0 0 0.803922 0 0 0 0 0.572549 0 0 0 0.1 0"/>
<feBlend mode="normal" in2="effect2_dropShadow_102_2061" result="effect3_dropShadow_102_2061"/>
<feColorMatrix in="SourceAlpha" type="matrix" values="0 0 0 0 0 0 0 0 0 0 0 0 0 0 0 0 0 0 127 0" result="hardAlpha"/>
<feOffset dy="24"/>
<feGaussianBlur stdDeviation="16"/>
<feColorMatrix type="matrix" values="0 0 0 0 0.231373 0 0 0 0 0.803922 0 0 0 0 0.572549 0 0 0 0.14 0"/>
<feBlend mode="normal" in2="effect3_dropShadow_102_2061" result="effect4_dropShadow_102_2061"/>
<feBlend mode="normal" in="SourceGraphic" in2="effect4_dropShadow_102_2061" result="shape"/>
</filter>
</defs>
</svg>
