<svg width="364" height="464" viewBox="0 0 364 464" fill="none" xmlns="http://www.w3.org/2000/svg">
<g filter="url(#filter0_dddd_95_8701)">
<rect x="32" y="8" width="300" height="400" rx="80" fill="white"/>
</g>
<mask id="mask0_95_8701" style="mask-type:alpha" maskUnits="userSpaceOnUse" x="32" y="8" width="300" height="400">
<rect opacity="0.5" x="32" y="8" width="300" height="400" rx="80" fill="white"/>
</mask>
<g mask="url(#mask0_95_8701)">
<circle cx="146" cy="104" r="304" fill="url(#paint0_radial_95_8701)"/>
<circle cx="213" cy="158" r="135" fill="url(#paint1_radial_95_8701)"/>
<circle cx="351.5" cy="357.5" r="295.5" fill="url(#paint2_radial_95_8701)"/>
</g>
<rect x="32" y="8" width="300" height="400" rx="80" fill="url(#paint3_linear_95_8701)" fill-opacity="0.86"/>
<mask id="mask1_95_8701" style="mask-type:alpha" maskUnits="userSpaceOnUse" x="32" y="8" width="300" height="400">
<rect x="32" y="8" width="300" height="400" rx="80" fill="white"/>
</mask>
<g mask="url(#mask1_95_8701)">
<rect opacity="0.6" x="35" y="11" width="294" height="394" rx="77" stroke="#5D5360" stroke-width="6"/>
<g style="mix-blend-mode:color-burn">
<path d="M136.645 333.195C138.316 333.195 139.812 333.551 141.133 334.262C142.453 334.973 143.48 335.969 144.215 337.25C144.949 338.523 145.316 339.969 145.316 341.586C145.316 343.203 144.949 344.652 144.215 345.934C143.48 347.207 142.453 348.203 141.133 348.922C139.812 349.641 138.316 350 136.645 350H129.848V333.195H136.645ZM136.422 345.758C137.664 345.758 138.664 345.375 139.422 344.609C140.188 343.836 140.57 342.828 140.57 341.586C140.57 340.336 140.188 339.332 139.422 338.574C138.664 337.816 137.664 337.438 136.422 337.438H134.488V345.758H136.422ZM156.754 350L154.035 344.855H152.359V350H147.73V333.195H155.008C156.828 333.195 158.324 333.75 159.496 334.859C160.668 335.969 161.254 337.398 161.254 339.148C161.254 340.164 161.02 341.082 160.551 341.902C160.082 342.723 159.426 343.387 158.582 343.895L161.922 350H156.754ZM152.359 337.309V340.965H154.469C155.102 340.965 155.598 340.797 155.957 340.461C156.324 340.117 156.508 339.676 156.508 339.137C156.508 338.598 156.324 338.16 155.957 337.824C155.598 337.48 155.102 337.309 154.469 337.309H152.359ZM175.012 350L174.086 347.27H168.133L167.207 350H162.25L168.848 333.195H173.371L180.109 350H175.012ZM172.961 343.648L171.098 338.445L169.258 343.648H172.961ZM188.664 341.023H197.875C197.875 342.383 197.656 343.645 197.219 344.809C196.789 345.973 196.188 346.969 195.414 347.797C194.648 348.617 193.715 349.262 192.613 349.73C191.512 350.191 190.312 350.422 189.016 350.422C187.75 350.422 186.562 350.203 185.453 349.766C184.344 349.32 183.395 348.711 182.605 347.938C181.824 347.164 181.207 346.23 180.754 345.137C180.301 344.043 180.074 342.867 180.074 341.609C180.074 340.352 180.297 339.176 180.742 338.082C181.188 336.988 181.801 336.055 182.582 335.281C183.363 334.5 184.305 333.887 185.406 333.441C186.516 332.996 187.707 332.773 188.98 332.773C191.184 332.773 193.098 333.395 194.723 334.637C196.348 335.879 197.34 337.477 197.699 339.43H192.848C192.543 338.719 192.043 338.156 191.348 337.742C190.66 337.32 189.887 337.109 189.027 337.109C187.77 337.109 186.75 337.523 185.969 338.352C185.195 339.18 184.809 340.266 184.809 341.609C184.809 342.945 185.195 344.027 185.969 344.855C186.742 345.676 187.762 346.086 189.027 346.086C189.91 346.086 190.699 345.891 191.395 345.5C192.09 345.109 192.57 344.59 192.836 343.941H188.664V341.023ZM208.574 350.422C206.793 350.422 205.199 350.047 203.793 349.297C202.387 348.539 201.289 347.488 200.5 346.145C199.719 344.801 199.328 343.285 199.328 341.598C199.328 339.91 199.719 338.395 200.5 337.051C201.289 335.707 202.387 334.66 203.793 333.91C205.199 333.152 206.793 332.773 208.574 332.773C209.902 332.773 211.137 332.996 212.277 333.441C213.426 333.879 214.402 334.484 215.207 335.258C216.02 336.023 216.656 336.957 217.117 338.059C217.578 339.152 217.809 340.332 217.809 341.598C217.809 342.863 217.578 344.047 217.117 345.148C216.656 346.242 216.02 347.176 215.207 347.949C214.402 348.715 213.426 349.32 212.277 349.766C211.137 350.203 209.902 350.422 208.574 350.422ZM205.398 344.844C206.234 345.695 207.293 346.121 208.574 346.121C209.855 346.121 210.91 345.695 211.738 344.844C212.566 343.992 212.98 342.91 212.98 341.598C212.98 340.285 212.566 339.207 211.738 338.363C210.91 337.512 209.855 337.086 208.574 337.086C207.293 337.086 206.234 337.512 205.398 338.363C204.562 339.215 204.145 340.293 204.145 341.598C204.145 342.902 204.562 343.984 205.398 344.844ZM230.676 333.195H235.152V350H231.332L224.652 340.883V350H220.176V333.195H224.219L230.676 342.02V333.195Z" fill="#231F24"/>
</g>
</g>
<g clip-path="url(#clip0_95_8701)">
<path d="M254.647 137.94H251.712C250.383 137.94 249.109 137.412 248.169 136.472L247.562 135.864C245.682 133.985 243.134 132.93 240.476 132.93H214.566L228.361 152.637L222.081 152.971V173.851C222.081 178.335 218.181 181.821 213.726 181.32L172.99 176.736C157.85 174.761 144.425 186.549 144.426 201.818V202.072C144.426 208.037 141.181 213.637 135.852 216.315C133.666 217.413 131.484 217.972 129.393 218.081C121.168 218.51 111.859 211.968 111.859 203.836V205.498C111.859 217.381 121.05 227.24 132.904 228.073C146.035 228.923 156.95 218.524 156.95 205.576V205.569C156.95 199.877 160.749 195.073 165.948 193.553C167.796 193.012 169.78 193.152 171.607 193.761L184.505 198.061L202.193 205.922C205.396 207.345 208.862 208.081 212.367 208.081H227.991C229.035 208.081 230.053 207.755 230.903 207.148L234.33 204.699C241.845 199.331 244.719 189.523 241.289 180.949L232.57 156.775C234.01 157.551 235.635 157.98 237.318 157.98H239.616V152.97C239.616 150.203 241.859 147.96 244.626 147.96H259.657V142.95C259.657 140.182 257.413 137.94 254.647 137.94Z" fill="#5D5360"/>
<path d="M202.896 167.501C199.198 164.655 197.03 160.254 197.03 155.587V135.432L104.344 102.867C104.344 102.867 133.622 121.812 135.031 142.321C157.367 148.48 156.636 168.624 156.636 168.624C156.636 168.624 182.422 161.713 202.152 180.22C205.8 183.643 210.387 185.904 215.359 186.456L226.024 187.641C227.034 187.754 227.553 186.467 226.747 185.847L202.896 167.501Z" fill="#E64555"/>
<path d="M111.859 188.04L104.344 180.525L111.859 160.484L119.374 180.525L111.859 188.04Z" fill="#E64555"/>
<path d="M241.289 180.949L233.005 157.98C229.117 157.98 226.408 161.838 227.727 165.495L234.22 183.499L234.264 183.621L234.312 183.741C236.457 189.098 234.663 195.227 229.967 198.581L229.293 199.063C228.605 197.116 226.769 195.713 224.586 195.713C221.873 195.713 219.677 197.874 219.592 200.566H212.368C209.914 200.566 207.488 200.051 205.245 199.055L173.984 186.632C172.131 186.014 170.238 185.701 168.357 185.701C166.808 185.701 165.287 185.916 163.836 186.34C155.338 188.827 149.408 196.764 149.435 205.636C149.435 205.712 149.436 205.788 149.436 205.863C149.459 213.949 142.92 220.52 134.834 220.544C132.937 220.55 131.373 220.555 130.566 220.56C120.253 220.619 111.859 212.27 111.859 201.959V207.077C111.859 218.692 121.289 228.1 132.904 228.073C146.035 228.923 156.95 218.524 156.95 205.576V205.569C156.95 199.878 160.748 195.074 165.947 193.553C167.467 193.108 169.075 193.143 170.615 193.501L164.465 218.101L172.612 213.213C175.472 211.497 177.783 209.001 179.274 206.018L183.432 197.703L184.505 198.06L202.193 205.921C205.396 207.345 208.862 208.08 212.367 208.08H219.739C220.08 210.125 221.025 212.034 222.51 213.52L226.661 217.671C228.54 219.55 229.596 222.099 229.596 224.756V207.803C230.058 207.647 230.501 207.434 230.902 207.148L234.33 204.699C241.845 199.332 244.719 189.524 241.289 180.949Z" fill="#4B3F4E"/>
<path d="M254.646 135.594H250.607L249.218 134.205C246.883 131.87 243.778 130.584 240.475 130.584H207.05C205.756 130.584 204.707 131.634 204.707 132.928C204.707 134.222 205.756 135.272 207.05 135.272H213.345L217.078 140.604H214.565C213.271 140.604 212.222 141.654 212.222 142.948C212.222 144.242 213.271 145.292 214.565 145.292H220.359L224.092 150.624H222.081C220.786 150.624 219.737 151.674 219.737 152.968C219.737 154.262 220.786 155.312 222.081 155.312H227.495C229.055 157.071 231 158.42 233.155 159.273C232.011 161.226 231.825 163.6 232.673 165.719L239.112 181.818C242.15 189.412 239.623 198.036 232.967 202.79L231.939 203.524V198.058C231.939 196.764 230.89 195.715 229.596 195.715C228.301 195.715 227.252 196.764 227.252 198.058V214.946L224.168 211.861C222.718 210.411 221.919 208.483 221.919 206.433V198.058C221.919 196.764 220.87 195.715 219.575 195.715C218.281 195.715 217.232 196.764 217.232 198.058V205.735H212.366C209.169 205.735 206.066 205.077 203.144 203.778L186.666 196.454C187.137 195.327 186.662 194.012 185.553 193.457C184.395 192.878 182.987 193.348 182.409 194.505L177.177 204.968C175.883 207.557 173.887 209.712 171.405 211.201L168.111 213.178L174.254 188.607C174.568 187.351 173.804 186.079 172.548 185.765C171.294 185.451 170.02 186.214 169.706 187.47L168.894 190.719C165.141 190.86 161.633 192.386 158.962 195.055C156.153 197.862 154.606 201.596 154.606 205.574C154.606 216.713 145.543 225.775 134.404 225.775C127.725 225.775 121.792 222.516 118.112 217.506C121.009 219.364 124.452 220.443 128.141 220.443C138.412 220.443 146.768 212.087 146.768 201.816C146.768 195.213 149.614 188.927 154.576 184.57C159.538 180.213 166.139 178.204 172.687 179.058L201.737 182.848C202.709 182.975 203.659 182.482 204.115 181.613C204.571 180.744 204.438 179.684 203.781 178.955C193.42 167.455 180.944 164.652 172.303 164.326C169.789 164.231 167.455 164.332 165.382 164.533L194.686 140.4V155.588C194.686 160.944 197.221 166.092 201.467 169.359L228.167 189.897C229.193 190.686 230.664 190.494 231.453 189.468C232.243 188.442 232.051 186.97 231.025 186.181L224.424 181.104V162.988C224.424 161.694 223.375 160.644 222.081 160.644C220.786 160.644 219.737 161.694 219.737 162.988V177.498L204.325 165.643C201.225 163.258 199.374 159.499 199.374 155.587V135.433C199.374 134.438 198.746 133.551 197.807 133.221L105.121 100.656C104.001 100.263 102.764 100.769 102.24 101.835C101.717 102.9 102.074 104.189 103.07 104.835C103.343 105.012 129.49 122.152 132.463 140.524L131.63 140.62C130.344 140.768 129.422 141.93 129.571 143.217C129.708 144.411 130.722 145.292 131.896 145.292C131.986 145.292 132.076 145.287 132.167 145.276L135.476 144.894C152.282 150.069 154.099 163.847 154.278 167.604L152.954 168.694C151.955 169.517 151.812 170.994 152.635 171.993C153.098 172.556 153.769 172.847 154.445 172.847C154.97 172.847 155.498 172.672 155.934 172.313L157.918 170.679C159.593 170.183 165.205 168.722 172.296 169.016C181.039 169.379 188.706 172.148 195.171 177.264L173.293 174.41C165.408 173.382 157.458 175.801 151.483 181.048C145.508 186.294 142.08 193.864 142.08 201.816C142.08 209.502 135.827 215.755 128.141 215.755C120.456 215.755 114.202 209.502 114.202 201.816V189.009L121.031 182.181C121.681 181.531 121.891 180.561 121.568 179.7L114.053 159.66C113.71 158.745 112.836 158.139 111.859 158.139C110.882 158.139 110.007 158.745 109.665 159.66L102.149 179.701C101.826 180.561 102.037 181.531 102.686 182.181L109.515 189.01V205.574C109.515 219.298 120.681 230.463 134.405 230.463C148.129 230.463 159.294 219.298 159.294 205.567C159.294 202.849 160.353 200.293 162.275 198.371C163.77 196.877 165.648 195.908 167.686 195.55L162.191 217.531C162.055 218.074 162.118 218.647 162.369 219.147L168.188 230.786H165.717C164.423 230.786 163.373 231.835 163.373 233.13C163.373 234.424 164.423 235.473 165.717 235.473H173.232C173.818 235.473 174.383 235.254 174.815 234.858C175.756 233.996 177.331 232.968 179.495 232.968C181.658 232.968 183.234 233.996 184.174 234.858C184.624 235.27 185.191 235.473 185.757 235.473C186.391 235.473 187.024 235.217 187.486 234.713C188.36 233.759 188.295 232.276 187.341 231.402C185.145 229.389 182.358 228.281 179.495 228.281C177.25 228.281 175.052 228.963 173.149 230.227L167.532 218.992L173.818 215.221C177.065 213.273 179.677 210.452 181.37 207.065L184.575 200.654L201.241 208.062C204.766 209.628 208.509 210.423 212.367 210.423H217.89C218.491 212.193 219.493 213.816 220.853 215.176L225.004 219.327C226.454 220.777 227.252 222.704 227.252 224.755V230.786H223.333C222.039 230.786 220.989 231.835 220.989 233.129C220.989 234.424 222.039 235.473 223.333 235.473H230.848C231.434 235.473 231.999 235.253 232.432 234.857C233.372 233.995 234.947 232.968 237.111 232.968C239.274 232.968 240.849 233.996 241.79 234.857C242.24 235.269 242.807 235.473 243.373 235.473C244.007 235.473 244.639 235.217 245.101 234.713C245.976 233.758 245.911 232.276 244.957 231.402C242.761 229.389 239.974 228.281 237.111 228.281C235.314 228.281 233.549 228.718 231.94 229.541V209.285L235.692 206.605C244.111 200.591 247.307 189.683 243.465 180.077L237.025 163.979C236.692 163.144 236.789 162.238 237.293 161.494C237.797 160.749 238.602 160.322 239.501 160.322H254.646C255.941 160.322 256.99 159.273 256.99 157.978C256.99 156.684 255.941 155.634 254.646 155.634H241.96V152.968C241.96 151.498 243.156 150.302 244.626 150.302H254.807V150.463C254.807 151.758 255.857 152.807 257.151 152.807C258.446 152.807 259.495 151.758 259.495 150.463V150.302H259.656C260.951 150.302 262 149.253 262 147.958V142.948C262 138.893 258.701 135.594 254.646 135.594ZM156.347 156.822C154.493 152.695 151.043 147.632 144.665 143.834L167.239 141.23C168.525 141.081 169.447 139.919 169.299 138.632C169.15 137.347 167.988 136.423 166.702 136.573L137.119 139.986C135.286 128.11 125.435 117.152 117.22 109.876L186.652 134.271L176.719 135.417C175.433 135.565 174.511 136.728 174.659 138.014C174.797 139.209 175.81 140.089 176.984 140.089C177.074 140.089 177.165 140.084 177.256 140.074L189.41 138.671L158.565 164.073C158.21 162.039 157.554 159.506 156.347 156.822ZM107.068 179.933L111.859 167.158L116.649 179.933L111.859 184.724L107.068 179.933ZM257.312 145.614H244.626C240.571 145.614 237.272 148.914 237.272 152.968V155.542C234.471 155.166 231.923 153.639 230.281 151.292L226.081 145.292H229.595C230.89 145.292 231.939 144.242 231.939 142.948C231.939 141.654 230.89 140.604 229.595 140.604H222.8L219.067 135.272H240.475C242.526 135.272 244.453 136.07 245.903 137.52L247.979 139.595C248.418 140.035 249.014 140.282 249.636 140.282H254.646C256.117 140.282 257.312 141.478 257.312 142.948V145.614H257.312Z" fill="black"/>
<path d="M242.145 138.102H242.12C240.826 138.102 239.789 139.151 239.789 140.445C239.789 141.74 240.851 142.789 242.145 142.789C243.44 142.789 244.489 141.74 244.489 140.445C244.489 139.151 243.44 138.102 242.145 138.102Z" fill="black"/>
</g>
<defs>
<filter id="filter0_dddd_95_8701" x="0" y="0" width="364" height="464" filterUnits="userSpaceOnUse" color-interpolation-filters="sRGB">
<feFlood flood-opacity="0" result="BackgroundImageFix"/>
<feColorMatrix in="SourceAlpha" type="matrix" values="0 0 0 0 0 0 0 0 0 0 0 0 0 0 0 0 0 0 127 0" result="hardAlpha"/>
<feOffset/>
<feGaussianBlur stdDeviation="0.5"/>
<feColorMatrix type="matrix" values="0 0 0 0 0 0 0 0 0 0 0 0 0 0 0 0 0 0 0.04 0"/>
<feBlend mode="normal" in2="BackgroundImageFix" result="effect1_dropShadow_95_8701"/>
<feColorMatrix in="SourceAlpha" type="matrix" values="0 0 0 0 0 0 0 0 0 0 0 0 0 0 0 0 0 0 127 0" result="hardAlpha"/>
<feOffset dy="4"/>
<feGaussianBlur stdDeviation="4"/>
<feColorMatrix type="matrix" values="0 0 0 0 0 0 0 0 0 0 0 0 0 0 0 0 0 0 0.04 0"/>
<feBlend mode="normal" in2="effect1_dropShadow_95_8701" result="effect2_dropShadow_95_8701"/>
<feColorMatrix in="SourceAlpha" type="matrix" values="0 0 0 0 0 0 0 0 0 0 0 0 0 0 0 0 0 0 127 0" result="hardAlpha"/>
<feOffset dy="16"/>
<feGaussianBlur stdDeviation="12"/>
<feColorMatrix type="matrix" values="0 0 0 0 0 0 0 0 0 0 0 0 0 0 0 0 0 0 0.04 0"/>
<feBlend mode="normal" in2="effect2_dropShadow_95_8701" result="effect3_dropShadow_95_8701"/>
<feColorMatrix in="SourceAlpha" type="matrix" values="0 0 0 0 0 0 0 0 0 0 0 0 0 0 0 0 0 0 127 0" result="hardAlpha"/>
<feOffset dy="24"/>
<feGaussianBlur stdDeviation="16"/>
<feColorMatrix type="matrix" values="0 0 0 0 0 0 0 0 0 0 0 0 0 0 0 0 0 0 0.04 0"/>
<feBlend mode="normal" in2="effect3_dropShadow_95_8701" result="effect4_dropShadow_95_8701"/>
<feBlend mode="normal" in="SourceGraphic" in2="effect4_dropShadow_95_8701" result="shape"/>
</filter>
<radialGradient id="paint0_radial_95_8701" cx="0" cy="0" r="1" gradientUnits="userSpaceOnUse" gradientTransform="translate(146 104) rotate(90) scale(304)">
<stop stop-color="#FF0012"/>
<stop offset="1" stop-color="#FF0012" stop-opacity="0"/>
</radialGradient>
<radialGradient id="paint1_radial_95_8701" cx="0" cy="0" r="1" gradientUnits="userSpaceOnUse" gradientTransform="translate(213 158) rotate(90) scale(135)">
<stop stop-color="#FF00D6"/>
<stop offset="1" stop-color="#FF00D3" stop-opacity="0"/>
</radialGradient>
<radialGradient id="paint2_radial_95_8701" cx="0" cy="0" r="1" gradientUnits="userSpaceOnUse" gradientTransform="translate(351.5 357.5) rotate(90) scale(295.5)">
<stop stop-color="#2400FF"/>
<stop offset="1" stop-color="#2800FF" stop-opacity="0"/>
</radialGradient>
<linearGradient id="paint3_linear_95_8701" x1="182" y1="8" x2="182" y2="408" gradientUnits="userSpaceOnUse">
<stop stop-color="#CAC6CB"/>
<stop offset="1" stop-color="#787479"/>
</linearGradient>
<clipPath id="clip0_95_8701">
<rect width="160" height="160" fill="white" transform="translate(102 88)"/>
</clipPath>
</defs>
</svg>
